<svg xmlns="http://www.w3.org/2000/svg" xmlns:xlink="http://www.w3.org/1999/xlink" width="749.168" height="146.296" viewBox="0 0 749.168 146.296">
  <defs>
    <linearGradient id="linear-gradient" x1="-0.368" y1="0.5" x2="0.983" y2="0.5" gradientUnits="objectBoundingBox">
      <stop offset="0" stop-color="#095d80"/>
      <stop offset="0.2" stop-color="#1895aa"/>
      <stop offset="0.5" stop-color="#81c3ca"/>
      <stop offset="0.8" stop-color="#25a4b5"/>
      <stop offset="1" stop-color="#095d80"/>
    </linearGradient>
    <linearGradient id="linear-gradient-2" x1="-0.013" y1="0.5" x2="3.619" y2="0.5" xlink:href="#linear-gradient"/>
    <linearGradient id="linear-gradient-3" x1="-8.589" y1="0.5" x2="16.002" y2="0.5" gradientUnits="objectBoundingBox">
      <stop offset="0" stop-color="#28265e"/>
      <stop offset="0.5" stop-color="#3298cd"/>
      <stop offset="1" stop-color="#2a2a64"/>
    </linearGradient>
    <linearGradient id="linear-gradient-4" x1="-27.142" y1="0.5" x2="39.708" y2="0.5" xlink:href="#linear-gradient-3"/>
    <linearGradient id="linear-gradient-5" x1="-8.594" y1="0.5" x2="10.715" y2="0.5" xlink:href="#linear-gradient-3"/>
    <linearGradient id="linear-gradient-6" x1="-13.51" y1="0.5" x2="13.265" y2="0.5" xlink:href="#linear-gradient-3"/>
    <linearGradient id="linear-gradient-7" x1="-12.242" y1="0.5" x2="9.425" y2="0.5" xlink:href="#linear-gradient-3"/>
    <linearGradient id="linear-gradient-8" x1="-42.28" y1="0.5" x2="24.557" y2="0.5" xlink:href="#linear-gradient-3"/>
    <linearGradient id="linear-gradient-9" x1="-1.696" y1="0.5" x2="4.142" y2="0.5" xlink:href="#linear-gradient-3"/>
    <linearGradient id="linear-gradient-10" x1="-5.386" y1="0.5" x2="7.107" y2="0.5" xlink:href="#linear-gradient-3"/>
    <linearGradient id="linear-gradient-11" x1="-1.868" y1="0.5" x2="2.577" y2="0.5" xlink:href="#linear-gradient-3"/>
    <clipPath id="clip-path">
      <path id="Path_7513" data-name="Path 7513" d="M951.984,2039.363a18.166,18.166,0,0,1-2.448,6.171,15.427,15.427,0,0,1-3.566,3.875c2.075,4.311,2.506,9.464,1.278,15.326,0,0-2.02,10.118-2.586,12.34-1.724,6.776-5.086,12.435-10.558,16.156-4.978,3.386-11.524,5.1-19.457,5.1H902.038c-8.488,0-14.725-2.139-19.069-6.54a18.1,18.1,0,0,1-2.924-3.9l-2.515,3.868c-1.884,2.9-3.633,5.425-5.2,7.51a30.25,30.25,0,0,1-7.31,7.029,25.294,25.294,0,0,1-10.343,3.9,33.617,33.617,0,0,1-4.972.35,51.724,51.724,0,0,1-6.544-.45,10.884,10.884,0,0,1-9.282-13.029l.5-2.37c-4.617,2.413-10.31,3.634-16.949,3.634H804.816c-8.488,0-14.725-2.139-19.068-6.54a18.771,18.771,0,0,1-5.232-11.264H763.7a25,25,0,0,1-9.59,12.7c-4.978,3.386-11.524,5.1-19.457,5.1H722.042c-8.488,0-14.726-2.139-19.069-6.54a18.053,18.053,0,0,1-2.98-4l-3.38,5.114a10.853,10.853,0,0,1-9.08,4.884H671.84a10.854,10.854,0,0,1-10.58-8.328l-.217-.9a24.384,24.384,0,0,1-5.052,4.676c-4.9,3.378-10.961,5.092-18.021,5.092H619.245a28.817,28.817,0,0,1-13.267-2.845,10.893,10.893,0,0,1-6.685,2.3h-11.31a10.9,10.9,0,0,1-10.582-8.316,10.934,10.934,0,0,1-10.577,8.316H555.515a10.9,10.9,0,0,1-10.74-9.089l-.092.437a10.931,10.931,0,0,1-10.652,8.652H522.613a10.882,10.882,0,0,1-10.652-13.116l7.892-37.663a10.932,10.932,0,0,1,10.653-8.652h11.31a10.8,10.8,0,0,1,4.28.877,39.358,39.358,0,0,1,10.649-1.365c6.352,0,11.469,1.086,15.641,3.319.177.095.352.19.525.289a34.678,34.678,0,0,1,7.207-2.566,43.192,43.192,0,0,1,18.8-.015,22.961,22.961,0,0,1,9.578,4.7l.014.012c.271-.214.544-.426.83-.625,4.886-3.39,10.948-5.11,18.019-5.11h18.724a30.761,30.761,0,0,1,11.257,1.934,10.863,10.863,0,0,1,5.406-1.446H675.4a10.9,10.9,0,0,1,10.683,8.8l.534,2.736,4.014-6.422a10.824,10.824,0,0,1,9.229-5.114h12.555a10.872,10.872,0,0,1,5.382,1.429,37.518,37.518,0,0,1,12.35-1.917h12.608c8.313,0,14.5,1.906,18.884,5.821l.041-.008.352.337a10.833,10.833,0,0,1,1.877-8.662l11.688-15.957a10.923,10.923,0,0,1,8.781-4.452h41.6a10.821,10.821,0,0,1,7.122,2.659c.083-.059.167-.117.253-.172a16.586,16.586,0,0,1,5.6-2.234,23,23,0,0,1,4.638-.449h94.054a22.849,22.849,0,0,1,4.846.465,14.265,14.265,0,0,1,6.333,3.031,12.816,12.816,0,0,1,4.412,7.675v0C953.582,2027.85,952.364,2037.547,951.984,2039.363Zm-451.9-10.114a27.34,27.34,0,0,0-11.485-5.223,59.528,59.528,0,0,0-12.667-1.2H432.478a10.782,10.782,0,0,0-7.47,2.98c-4.345-2.44-9.827-3.627-16.734-3.627H386.2a49.182,49.182,0,0,0-11.313,1.156,28.453,28.453,0,0,0-10.069,4.438,24.5,24.5,0,0,0-7.4,8.449,36.855,36.855,0,0,0-3.466,9.87l-.4,1.893a10.845,10.845,0,0,0,2.2,9.094,10.976,10.976,0,0,0,.849.929,10.845,10.845,0,0,0-7.406,8.159l-.6,2.868a31.9,31.9,0,0,0-.612,10.89,19.347,19.347,0,0,0,5.157,10.94,21.376,21.376,0,0,0,10.141,5.7,43.055,43.055,0,0,0,10.98,1.225h25.055a37.775,37.775,0,0,0,14.843-2.706,10.832,10.832,0,0,0,7.171,2.706h43.13a70.878,70.878,0,0,0,13.19-1.113,35.338,35.338,0,0,0,11.956-4.475,28.386,28.386,0,0,0,9.223-9.158,37.763,37.763,0,0,0,4.783-12.411l3.5-16.724a29.779,29.779,0,0,0,.154-13.179A20.828,20.828,0,0,0,500.084,2029.249Z" fill="none"/>
    </clipPath>
    <radialGradient id="radial-gradient" cx="0.5" cy="0.5" r="7.447" gradientTransform="matrix(-0.067, 0, 0, -0.067, 0.371, -399.976)" gradientUnits="objectBoundingBox">
      <stop offset="0.313" stop-color="#396ba9"/>
      <stop offset="0.326" stop-color="#3666a1" stop-opacity="0.953"/>
      <stop offset="0.403" stop-color="#284b76" stop-opacity="0.702"/>
      <stop offset="0.484" stop-color="#1b3352" stop-opacity="0.486"/>
      <stop offset="0.569" stop-color="#112134" stop-opacity="0.31"/>
      <stop offset="0.658" stop-color="#09121d" stop-opacity="0.173"/>
      <stop offset="0.753" stop-color="#04080c" stop-opacity="0.075"/>
      <stop offset="0.859" stop-color="#010103" stop-opacity="0.02"/>
      <stop offset="0.998" stop-opacity="0"/>
    </radialGradient>
    <radialGradient id="radial-gradient-2" cx="0.5" cy="0.5" r="2.122" gradientTransform="matrix(-0.236, 0, 0, -0.236, 0.385, -153.949)" gradientUnits="objectBoundingBox">
      <stop offset="0.049" stop-color="#d0d0d0"/>
      <stop offset="0.063" stop-color="#c8cacc"/>
      <stop offset="0.085" stop-color="#b2bac3"/>
      <stop offset="0.112" stop-color="#8f9fb4"/>
      <stop offset="0.143" stop-color="#5e7b9e"/>
      <stop offset="0.176" stop-color="#204c84"/>
      <stop offset="0.179" stop-color="#1c4982"/>
      <stop offset="0.21" stop-color="#265588" stop-opacity="0.906"/>
      <stop offset="0.316" stop-color="#45799d" stop-opacity="0.631"/>
      <stop offset="0.429" stop-color="#5f98ae" stop-opacity="0.4"/>
      <stop offset="0.547" stop-color="#73afbc" stop-opacity="0.224"/>
      <stop offset="0.674" stop-color="#81c0c5" stop-opacity="0.098"/>
      <stop offset="0.815" stop-color="#8ac9cb" stop-opacity="0.024"/>
      <stop offset="1" stop-color="#8dcdcd" stop-opacity="0"/>
    </radialGradient>
    <radialGradient id="radial-gradient-3" cx="0.5" cy="0.5" r="10.076" gradientTransform="matrix(-0.05, 0, 0, -0.05, 0.4, -1906.388)" gradientUnits="objectBoundingBox">
      <stop offset="0.049" stop-color="#cbcbcb"/>
      <stop offset="0.07" stop-color="#bcbfc6"/>
      <stop offset="0.112" stop-color="#95a1b9"/>
      <stop offset="0.169" stop-color="#5870a5"/>
      <stop offset="0.195" stop-color="#3a599c"/>
      <stop offset="0.228" stop-color="#324d87" stop-opacity="0.867"/>
      <stop offset="0.294" stop-color="#243863" stop-opacity="0.635"/>
      <stop offset="0.367" stop-color="#192744" stop-opacity="0.439"/>
      <stop offset="0.446" stop-color="#10182b" stop-opacity="0.278"/>
      <stop offset="0.534" stop-color="#080d17" stop-opacity="0.153"/>
      <stop offset="0.636" stop-color="#03050a" stop-opacity="0.067"/>
      <stop offset="0.764" stop-color="#000102" stop-opacity="0.016"/>
      <stop offset="1" stop-opacity="0"/>
    </radialGradient>
    <radialGradient id="radial-gradient-4" cx="0.5" cy="0.5" r="10.079" gradientTransform="matrix(-0.05, 0, 0, -0.05, 0.327, -3018.469)" gradientUnits="objectBoundingBox">
      <stop offset="0.179" stop-color="#1c4982"/>
      <stop offset="0.21" stop-color="#194276" stop-opacity="0.906"/>
      <stop offset="0.316" stop-color="#112e51" stop-opacity="0.631"/>
      <stop offset="0.429" stop-color="#0b1d34" stop-opacity="0.4"/>
      <stop offset="0.547" stop-color="#06101d" stop-opacity="0.224"/>
      <stop offset="0.674" stop-color="#02070c" stop-opacity="0.098"/>
      <stop offset="0.815" stop-color="#000103" stop-opacity="0.024"/>
      <stop offset="1" stop-opacity="0"/>
    </radialGradient>
    <radialGradient id="radial-gradient-5" cx="0.5" cy="0.5" r="7.447" gradientTransform="matrix(-0.067, 0, 0, -0.067, 1.337, -394.191)" xlink:href="#radial-gradient"/>
    <radialGradient id="radial-gradient-6" cx="0.5" cy="0.5" r="2.122" gradientTransform="matrix(-0.236, 0, 0, -0.236, 2.359, -152.164)" xlink:href="#radial-gradient-2"/>
    <radialGradient id="radial-gradient-7" cx="0.5" cy="0.5" r="10.076" gradientTransform="matrix(-0.05, 0, 0, -0.05, 1.46, -1895.06)" xlink:href="#radial-gradient-3"/>
    <radialGradient id="radial-gradient-8" cx="0.5" cy="0.5" r="10.079" gradientTransform="matrix(-0.05, 0, 0, -0.05, 2.004, -3000.792)" xlink:href="#radial-gradient-4"/>
  </defs>
  <g id="Group_1286" data-name="Group 1286" transform="translate(-345.416 -2003.965)">
    <g id="Group_1283" data-name="Group 1283">
      <g id="Group_1282" data-name="Group 1282">
        <g id="Group_1269" data-name="Group 1269">
          <g id="Group_1265" data-name="Group 1265">
            <path id="Path_7468" data-name="Path 7468" d="M957.257,2027.275v-.01a15.971,15.971,0,0,0-5.5-9.555,17.423,17.423,0,0,0-7.725-3.715,26.015,26.015,0,0,0-5.521-.537H844.459a26.216,26.216,0,0,0-5.278.514,20.021,20.021,0,0,0-5.025,1.73,14.069,14.069,0,0,0-7.311-2.049h-41.6a14.132,14.132,0,0,0-11.363,5.763l-11.687,15.956a14.127,14.127,0,0,0-2.228,4.613c-4.375-2.288-9.775-3.41-16.344-3.41H731.012a41.714,41.714,0,0,0-12.1,1.669,14.093,14.093,0,0,0-5.637-1.181H700.725a14,14,0,0,0-11.943,6.619l-.295.47a14.116,14.116,0,0,0-12.222-7.089H663.6a14.068,14.068,0,0,0-5.606,1.17,34.976,34.976,0,0,0-11.056-1.658H628.216a34.582,34.582,0,0,0-18.78,4.976,26.815,26.815,0,0,0-8.921-3.863,46.417,46.417,0,0,0-20.3.019,39.77,39.77,0,0,0-6.359,2.107c-4.469-2.178-9.8-3.239-16.254-3.239a43.43,43.43,0,0,0-10.477,1.209,14,14,0,0,0-4.453-.721H531.368a14.147,14.147,0,0,0-13.786,11.2l-7.893,37.664a14.085,14.085,0,0,0,13.786,16.973h11.417a14.125,14.125,0,0,0,10.733-4.985,14.025,14.025,0,0,0,10.751,4.985h11.31a14.048,14.048,0,0,0,10.585-4.78,14.02,14.02,0,0,0,10.574,4.78h11.31a14.133,14.133,0,0,0,6.957-1.846,33.3,33.3,0,0,0,12.995,2.388h18.724c7.722,0,14.4-1.9,19.84-5.659q1.057-.731,2.043-1.558A14.045,14.045,0,0,0,672.7,2102.9h15.693a14.049,14.049,0,0,0,11.752-6.32l.825-1.249c.19.21.386.416.585.619,4.976,5.041,11.958,7.492,21.347,7.492h12.609c8.586,0,15.739-1.9,21.258-5.658a28,28,0,0,0,9.98-12.146h11.939a21.649,21.649,0,0,0,5.642,10.312c4.975,5.041,11.958,7.492,21.347,7.492h12.609a44.348,44.348,0,0,0,13.029-1.795,14.081,14.081,0,0,0,12.3,13.534,54.854,54.854,0,0,0,6.947.476,36.958,36.958,0,0,0,5.45-.385,28.478,28.478,0,0,0,11.642-4.405,33.466,33.466,0,0,0,8.091-7.767c1.6-2.132,3.391-4.711,5.311-7.666q.243.261.493.516c4.975,5.041,11.957,7.492,21.347,7.492h12.608c8.587,0,15.739-1.9,21.258-5.658,5.838-3.97,9.829-10.031,11.86-18.014.579-2.276,2.54-12.086,2.617-12.473a27.918,27.918,0,0,0-.585-15.1,18.659,18.659,0,0,0,2.429-3.022,21.367,21.367,0,0,0,2.892-7.253C956.24,2040.672,957.743,2030.029,957.257,2027.275Z" fill="url(#linear-gradient)"/>
            <path id="Path_7469" data-name="Path 7469" d="M511.246,2041.89a23.991,23.991,0,0,0-8.291-13.229h0a30.489,30.489,0,0,0-12.815-5.86,62.6,62.6,0,0,0-13.346-1.269H433.34a14,14,0,0,0-7.855,2.4c-4.473-2.047-9.848-3.046-16.35-3.046H387.057a52.3,52.3,0,0,0-12.049,1.242,31.633,31.633,0,0,0-11.192,4.948,27.651,27.651,0,0,0-8.363,9.541,40.047,40.047,0,0,0-3.779,10.728l-.4,1.893a14.023,14.023,0,0,0,1.359,9.523,14.1,14.1,0,0,0-5.711,8.658l-.6,2.868a35,35,0,0,0-.652,11.977,22.526,22.526,0,0,0,6.025,12.732,24.528,24.528,0,0,0,11.63,6.573,46.182,46.182,0,0,0,11.8,1.33h25.055a42.457,42.457,0,0,0,14.347-2.276,14.054,14.054,0,0,0,7.666,2.276h43.13a74.134,74.134,0,0,0,13.791-1.17,38.527,38.527,0,0,0,13.031-4.891,31.561,31.561,0,0,0,10.257-10.181,40.97,40.97,0,0,0,5.207-13.46l3.5-16.724A32.889,32.889,0,0,0,511.246,2041.89Z" fill="url(#linear-gradient-2)"/>
          </g>
          <g id="Group_1266" data-name="Group 1266">
            <path id="Path_7470" data-name="Path 7470" d="M953.243,2025.93v0a12.816,12.816,0,0,0-4.412-7.675,14.265,14.265,0,0,0-6.333-3.031,22.849,22.849,0,0,0-4.846-.465H843.6a23,23,0,0,0-4.638.449,16.586,16.586,0,0,0-5.6,2.234c-.086.055-.17.113-.253.172a10.821,10.821,0,0,0-7.122-2.659h-41.6a10.923,10.923,0,0,0-8.781,4.452l-11.688,15.957a10.833,10.833,0,0,0-1.877,8.662l-.352-.337-.041.008c-4.388-3.915-10.571-5.821-18.884-5.821H730.15a37.518,37.518,0,0,0-12.35,1.917,10.872,10.872,0,0,0-5.382-1.429H699.863a10.824,10.824,0,0,0-9.229,5.114l-4.014,6.422-.534-2.736a10.9,10.9,0,0,0-10.683-8.8H662.741a10.863,10.863,0,0,0-5.406,1.446,30.761,30.761,0,0,0-11.257-1.934H627.354c-7.071,0-13.133,1.72-18.019,5.11-.286.2-.559.411-.83.625l-.014-.012a22.961,22.961,0,0,0-9.578-4.7,43.192,43.192,0,0,0-18.8.015,34.678,34.678,0,0,0-7.207,2.566c-.173-.1-.348-.194-.525-.289-4.172-2.233-9.289-3.319-15.641-3.319a39.358,39.358,0,0,0-10.649,1.365,10.8,10.8,0,0,0-4.28-.877h-11.31a10.932,10.932,0,0,0-10.653,8.652l-7.892,37.663a10.882,10.882,0,0,0,10.652,13.116h11.418a10.931,10.931,0,0,0,10.652-8.652l.092-.437a10.9,10.9,0,0,0,10.74,9.089h11.309a10.934,10.934,0,0,0,10.577-8.316,10.9,10.9,0,0,0,10.582,8.316h11.31a10.893,10.893,0,0,0,6.685-2.3,28.817,28.817,0,0,0,13.267,2.845H637.97c7.06,0,13.123-1.714,18.021-5.092a24.384,24.384,0,0,0,5.052-4.676l.217.9a10.854,10.854,0,0,0,10.58,8.328h15.693a10.853,10.853,0,0,0,9.08-4.884l3.38-5.114a18.053,18.053,0,0,0,2.98,4c4.343,4.4,10.581,6.54,19.069,6.54h12.609c7.933,0,14.479-1.718,19.457-5.1a25,25,0,0,0,9.59-12.7h16.818a18.771,18.771,0,0,0,5.232,11.264c4.343,4.4,10.58,6.54,19.068,6.54h12.609c6.639,0,12.332-1.221,16.949-3.634l-.5,2.37a10.884,10.884,0,0,0,9.282,13.029,51.724,51.724,0,0,0,6.544.45,33.617,33.617,0,0,0,4.972-.35,25.294,25.294,0,0,0,10.343-3.9,30.25,30.25,0,0,0,7.31-7.029c1.568-2.085,3.317-4.611,5.2-7.51l2.515-3.868a18.1,18.1,0,0,0,2.924,3.9c4.344,4.4,10.581,6.54,19.069,6.54h12.609c7.933,0,14.479-1.718,19.457-5.1,5.472-3.721,8.834-9.38,10.558-16.156.566-2.222,2.586-12.34,2.586-12.34,1.228-5.862.8-11.015-1.278-15.326a15.427,15.427,0,0,0,3.566-3.875,18.166,18.166,0,0,0,2.448-6.171C952.364,2037.547,953.582,2027.85,953.243,2025.93Z"/>
            <path id="Path_7471" data-name="Path 7471" d="M500.084,2029.249a27.34,27.34,0,0,0-11.485-5.223,59.528,59.528,0,0,0-12.667-1.2H432.478a10.782,10.782,0,0,0-7.47,2.98c-4.345-2.44-9.827-3.627-16.734-3.627H386.2a49.182,49.182,0,0,0-11.313,1.156,28.453,28.453,0,0,0-10.069,4.438,24.5,24.5,0,0,0-7.4,8.449,36.855,36.855,0,0,0-3.466,9.87l-.4,1.893a10.845,10.845,0,0,0,2.2,9.094,10.976,10.976,0,0,0,.849.929,10.845,10.845,0,0,0-7.406,8.159l-.6,2.868a31.9,31.9,0,0,0-.612,10.89,19.347,19.347,0,0,0,5.157,10.94,21.376,21.376,0,0,0,10.141,5.7,43.055,43.055,0,0,0,10.98,1.225h25.055a37.775,37.775,0,0,0,14.843-2.706,10.832,10.832,0,0,0,7.171,2.706h43.13a70.878,70.878,0,0,0,13.19-1.113,35.338,35.338,0,0,0,11.956-4.475,28.386,28.386,0,0,0,9.223-9.158,37.763,37.763,0,0,0,4.783-12.411l3.5-16.724a29.779,29.779,0,0,0,.154-13.179A20.828,20.828,0,0,0,500.084,2029.249Z"/>
          </g>
          <g id="Group_1268" data-name="Group 1268">
            <g id="Group_1267" data-name="Group 1267">
              <path id="Path_7472" data-name="Path 7472" d="M790.208,2025.837h-5.827l-11.688,15.956h4.562l2.137-2.759H789.5l.948,2.759h4.626Zm-8.659,9.869,5.06-6.949,2.2,6.949Z" fill="#fff"/>
              <path id="Path_7473" data-name="Path 7473" d="M804.62,2041.793l6.4-11.574,1.471,11.574h5.016l8.473-15.957h-4.156l-6.358,12.369-1.5-12.369h-3.977l-6.959,12.369-.931-12.369h-4.123l1.51,15.957Z" fill="#fff"/>
              <path id="Path_7474" data-name="Path 7474" d="M850.317,2041.8a5.692,5.692,0,0,0,1.99-.706,4.535,4.535,0,0,0,1.485-1.47,7.411,7.411,0,0,0,.936-2.492,7.5,7.5,0,0,0,.188-2.563,2.429,2.429,0,0,0-.707-1.471,2.94,2.94,0,0,0-1.488-.681,14.307,14.307,0,0,0-2.157-.2l-6.972-.194c-.409-.011-.778-.032-1.106-.065a2.249,2.249,0,0,1-.822-.219.939.939,0,0,1-.462-.511,1.71,1.71,0,0,1-.006-.942,2.237,2.237,0,0,1,.326-.82,1.573,1.573,0,0,1,.593-.5,2.861,2.861,0,0,1,.89-.26,8.655,8.655,0,0,1,1.2-.072h5.454a2.252,2.252,0,0,1,1.714.495,1.308,1.308,0,0,1,.286,1.192h4.058l.109-.519a5.233,5.233,0,0,0,.1-1.949,2.091,2.091,0,0,0-.722-1.28,3.616,3.616,0,0,0-1.605-.707,12.409,12.409,0,0,0-2.551-.22H843.6a12.17,12.17,0,0,0-2.458.228,5.743,5.743,0,0,0-1.954.763,4.653,4.653,0,0,0-1.418,1.42,6.416,6.416,0,0,0-.85,2.2,8.649,8.649,0,0,0-.239,2.687,1.971,1.971,0,0,0,.779,1.435,3.921,3.921,0,0,0,1.887.6q1.23.131,3.084.2l5.751.211a3.631,3.631,0,0,1,1.825.43,1.1,1.1,0,0,1,.386,1.258,2.062,2.062,0,0,1-.813,1.323,3.342,3.342,0,0,1-1.928.447h-5.876a6.957,6.957,0,0,1-1.089-.073,1.678,1.678,0,0,1-.73-.276.95.95,0,0,1-.358-.577,2.37,2.37,0,0,1,.043-.974h-4.091l-.146.7a5.336,5.336,0,0,0-.092,2.217,2.187,2.187,0,0,0,.857,1.332,3.994,3.994,0,0,0,1.765.64,18.386,18.386,0,0,0,2.645.162h7.3A14.876,14.876,0,0,0,850.317,2041.8Z" fill="#fff"/>
              <path id="Path_7475" data-name="Path 7475" d="M872.628,2041.793l.7-3.327H860.581l.64-3.052h11.8l.663-3.165h-11.8l.64-3.052h12.532l.7-3.36H859.007l-3.344,15.957Z" fill="#fff"/>
              <path id="Path_7476" data-name="Path 7476" d="M878.808,2041.793l.891-4.252h7.257a3.743,3.743,0,0,1,1.345.2,1.77,1.77,0,0,1,.785.553,1.571,1.571,0,0,1,.316.819,3.238,3.238,0,0,1-.062.99l-.354,1.688h4.221l.585-2.791a2.985,2.985,0,0,0-.017-1.584,2.219,2.219,0,0,0-.682-1.005,2.9,2.9,0,0,0-1.078-.553,6.475,6.475,0,0,0-1.2-.219,8.025,8.025,0,0,0,1.372-.267,4.151,4.151,0,0,0,1.4-.723,4.927,4.927,0,0,0,1.224-1.468,8.394,8.394,0,0,0,.863-2.526,6.425,6.425,0,0,0,.081-2.288,2.468,2.468,0,0,0-.833-1.486,4.084,4.084,0,0,0-1.836-.8,14.7,14.7,0,0,0-2.912-.243h-12.24l-3.343,15.956Zm2.619-12.5h7.614a5.126,5.126,0,0,1,1.043.1,1.691,1.691,0,0,1,.754.35,1.243,1.243,0,0,1,.4.707,2.875,2.875,0,0,1-.051,1.169,3.362,3.362,0,0,1-.48,1.209,2.689,2.689,0,0,1-.741.747,2.646,2.646,0,0,1-.89.372,4.139,4.139,0,0,1-.915.107h-7.727Z" fill="#fff"/>
              <path id="Path_7477" data-name="Path 7477" d="M899.8,2041.793l3.344-15.957h-4.188l-3.344,15.957Z" fill="#fff"/>
              <path id="Path_7478" data-name="Path 7478" d="M919.337,2041.793l.7-3.327H907.29l.64-3.052h11.8l.664-3.165h-11.8l.64-3.052h12.532l.7-3.36H905.716l-3.344,15.957Z" fill="#fff"/>
              <path id="Path_7479" data-name="Path 7479" d="M942.53,2027.848a2.091,2.091,0,0,0-.722-1.28,3.615,3.615,0,0,0-1.6-.707,12.409,12.409,0,0,0-2.551-.22H930.2a12.17,12.17,0,0,0-2.458.228,5.743,5.743,0,0,0-1.954.763,4.653,4.653,0,0,0-1.418,1.42,6.416,6.416,0,0,0-.85,2.2,8.651,8.651,0,0,0-.239,2.687,1.974,1.974,0,0,0,.779,1.435,3.921,3.921,0,0,0,1.887.6q1.23.131,3.084.2l5.751.211a3.631,3.631,0,0,1,1.825.43,1.1,1.1,0,0,1,.386,1.258,2.063,2.063,0,0,1-.813,1.323,3.342,3.342,0,0,1-1.928.447h-5.876a6.957,6.957,0,0,1-1.089-.073,1.678,1.678,0,0,1-.73-.276.95.95,0,0,1-.358-.577,2.371,2.371,0,0,1,.043-.974h-4.091l-.146.7a5.336,5.336,0,0,0-.092,2.217,2.187,2.187,0,0,0,.857,1.332,4,4,0,0,0,1.765.64,18.385,18.385,0,0,0,2.645.162h7.3a14.876,14.876,0,0,0,2.434-.186,5.692,5.692,0,0,0,1.99-.706,4.534,4.534,0,0,0,1.485-1.47,7.39,7.39,0,0,0,.936-2.492,7.5,7.5,0,0,0,.188-2.563,2.429,2.429,0,0,0-.707-1.471,2.94,2.94,0,0,0-1.488-.681,14.307,14.307,0,0,0-2.157-.2l-6.972-.194c-.409-.011-.778-.032-1.106-.065a2.249,2.249,0,0,1-.822-.219.943.943,0,0,1-.462-.511,1.71,1.71,0,0,1-.006-.942,2.254,2.254,0,0,1,.326-.82,1.572,1.572,0,0,1,.593-.5,2.861,2.861,0,0,1,.89-.26,8.656,8.656,0,0,1,1.2-.072h5.454a2.252,2.252,0,0,1,1.714.495,1.308,1.308,0,0,1,.286,1.192h4.059l.108-.519A5.232,5.232,0,0,0,942.53,2027.848Z" fill="#fff"/>
              <path id="Path_7480" data-name="Path 7480" d="M418.035,2056.47a11.641,11.641,0,0,0,2.7-3.057,13.861,13.861,0,0,0,1.7-4.492l.952-4.545q1.2-5.734-2.787-8.523t-12.322-2.786H386.2a38.9,38.9,0,0,0-8.813.865,17.594,17.594,0,0,0-6.249,2.706,13.655,13.655,0,0,0-4.131,4.734,25.96,25.96,0,0,0-2.4,6.955l-.4,1.893h12.771q.781-3.734,3.021-5.249a11.03,11.03,0,0,1,6.243-1.516h16.289a15.03,15.03,0,0,1,3.892.407,4.586,4.586,0,0,1,2.185,1.19,3.214,3.214,0,0,1,.842,1.921,8.639,8.639,0,0,1-.193,2.6,6.266,6.266,0,0,1-2.412,3.9,9.254,9.254,0,0,1-5.571,1.408H387.308l-2.167,10.335h14.4q4.221,0,5.685,1.408t.829,4.438a6.172,6.172,0,0,1-2.871,4.139,11.515,11.515,0,0,1-6.145,1.434H380.313a26.942,26.942,0,0,1-3.845-.244,5.964,5.964,0,0,1-2.712-1,3.766,3.766,0,0,1-1.4-2.083,7.729,7.729,0,0,1,.094-3.546l.283-1.352H359.85l-.6,2.867a21.576,21.576,0,0,0-.48,7.2,8.4,8.4,0,0,0,2.2,4.844,10.677,10.677,0,0,0,5.083,2.732,32.79,32.79,0,0,0,8.206.865h25.055q8.712,0,13.432-3.408a14.888,14.888,0,0,0,5.967-9.362l.918-4.384q.93-4.434-1.394-7.034t-7.58-3.085a29.886,29.886,0,0,0,3.936-1.218A13.328,13.328,0,0,0,418.035,2056.47Z" fill="#fff"/>
              <path id="Path_7481" data-name="Path 7481" d="M493.248,2037.719a16.561,16.561,0,0,0-6.962-3.057,49.334,49.334,0,0,0-10.354-.948H432.478l-11.147,53.195h43.13a59.877,59.877,0,0,0,11.151-.92,24.482,24.482,0,0,0,8.3-3.057,17.527,17.527,0,0,0,5.709-5.682,26.9,26.9,0,0,0,3.342-8.847l3.5-16.722a19.494,19.494,0,0,0,.221-8.416A9.857,9.857,0,0,0,493.248,2037.719Zm-11.657,18.833-1.883,8.984a14.181,14.181,0,0,1-1.93,4.95,10.046,10.046,0,0,1-3.255,3.139,13.3,13.3,0,0,1-4.48,1.623,31.17,31.17,0,0,1-5.562.46H437.749l6.429-30.682h25.975a25.925,25.925,0,0,1,6.671.7,7.676,7.676,0,0,1,3.806,2.11,5.92,5.92,0,0,1,1.416,3.572A18.523,18.523,0,0,1,481.591,2056.552Z" fill="#fff"/>
              <path id="Path_7482" data-name="Path 7482" d="M601.483,2051.924a12.14,12.14,0,0,0-5.09-2.435,28.853,28.853,0,0,0-6.692-.731,29.753,29.753,0,0,0-7,.731,23.348,23.348,0,0,0-5.147,1.84,15.316,15.316,0,0,0-3.574,2.464,17.92,17.92,0,0,0-2.264,2.542,7.925,7.925,0,0,0-4.466-5.546q-3.795-2.031-10.506-2.031a25.644,25.644,0,0,0-9.795,1.678,16.044,16.044,0,0,0-6.291,4.33l1.157-5.52h-11.31l-7.893,37.663h11.418l3.969-18.94a13.171,13.171,0,0,1,1.968-4.869,11.616,11.616,0,0,1,3.114-3.113,11.908,11.908,0,0,1,3.728-1.649,15.991,15.991,0,0,1,3.863-.488,19.5,19.5,0,0,1,4.871.514,5.9,5.9,0,0,1,3.019,1.732,5.59,5.59,0,0,1,1.268,3.248,17.3,17.3,0,0,1-.438,5.059l-3.878,18.506h11.309l3.834-18.29a13.043,13.043,0,0,1,1.752-4.356,13.54,13.54,0,0,1,3.068-3.409,13.909,13.909,0,0,1,4.063-2.22,14.16,14.16,0,0,1,4.683-.784q5.3,0,7.077,2.381t.742,7.306l-4.06,19.372h11.31l4.99-23.809a13.931,13.931,0,0,0,.032-6.738A8.976,8.976,0,0,0,601.483,2051.924Z" fill="#fff"/>
              <path id="Path_7483" data-name="Path 7483" d="M646.078,2048.758H627.354q-7.254,0-11.811,3.166a14.079,14.079,0,0,0-5.8,9.065l-2.994,14.285q-1.224,5.847,2.009,9.012t10.483,3.165H637.97q7.25,0,11.837-3.165a13.97,13.97,0,0,0,5.812-9.012l2.994-14.285q1.234-5.9-2.024-9.065T646.078,2048.758Zm.623,15.1-1.791,8.55a9.338,9.338,0,0,1-1.243,3.22,7.115,7.115,0,0,1-4.554,3.138,13.781,13.781,0,0,1-2.9.3H624.575a12.069,12.069,0,0,1-2.779-.3,4.5,4.5,0,0,1-2.1-1.081,4,4,0,0,1-1.138-2.057,7.54,7.54,0,0,1,.106-3.22l1.792-8.55a9.3,9.3,0,0,1,1.243-3.219,7.184,7.184,0,0,1,2-2.057,7.266,7.266,0,0,1,2.554-1.083,13.9,13.9,0,0,1,2.9-.3h11.635a12.219,12.219,0,0,1,2.779.3,4.543,4.543,0,0,1,2.1,1.083,4,4,0,0,1,1.138,2.057A7.552,7.552,0,0,1,646.7,2063.857Z" fill="#fff"/>
              <path id="Path_7484" data-name="Path 7484" d="M699.863,2049.246l-18.641,29.818-5.819-29.818H662.741l9.1,37.663h15.693l24.885-37.663Z" fill="#fff"/>
              <path id="Path_7485" data-name="Path 7485" d="M742.758,2048.758H730.15q-8.066,0-12.705,3.3t-6.094,10.227l-2.438,11.634q-1.452,6.928,1.807,10.228t11.322,3.3h12.609q8.6,0,13.337-3.22a14.419,14.419,0,0,0,6.026-9.388H743.191a4.354,4.354,0,0,1-2.688,3.273,17.657,17.657,0,0,1-6.638.948h-7.2a21.742,21.742,0,0,1-3.017-.19,5.5,5.5,0,0,1-2.223-.758,2.836,2.836,0,0,1-1.2-1.624,5.747,5.747,0,0,1,.042-2.786l.488-2.327H754.74l1.86-8.876q1.484-7.087-1.876-10.416T742.758,2048.758Zm2.509,13.854-.306,1.462H722.286l.329-1.571a7.275,7.275,0,0,1,1.125-2.786,5.18,5.18,0,0,1,1.884-1.623,7.369,7.369,0,0,1,2.533-.73,26.77,26.77,0,0,1,3.092-.164h7.2q4.437,0,5.941,1.218T745.267,2062.612Z" fill="#fff"/>
              <path id="Path_7486" data-name="Path 7486" d="M759.529,2069.647h28.626l1.928-9.2H761.458Z" fill="#fff"/>
              <path id="Path_7487" data-name="Path 7487" d="M825.533,2048.758H812.925q-8.066,0-12.706,3.3t-6.094,10.227l-2.438,11.634q-1.452,6.928,1.807,10.228t11.322,3.3h12.609q8.6,0,13.337-3.22a14.415,14.415,0,0,0,6.026-9.388H825.965a4.354,4.354,0,0,1-2.688,3.273,17.653,17.653,0,0,1-6.638.948h-7.2a21.752,21.752,0,0,1-3.017-.19,5.5,5.5,0,0,1-2.223-.758,2.836,2.836,0,0,1-1.2-1.624,5.747,5.747,0,0,1,.042-2.786l.488-2.327h33.984l1.86-8.876q1.485-7.087-1.876-10.416T825.533,2048.758Zm2.508,13.854-.306,1.462H805.061l.328-1.571a7.275,7.275,0,0,1,1.126-2.786,5.177,5.177,0,0,1,1.883-1.623,7.369,7.369,0,0,1,2.533-.73,26.782,26.782,0,0,1,3.092-.164h7.2q4.435,0,5.94,1.218T828.041,2062.612Z" fill="#fff"/>
              <path id="Path_7488" data-name="Path 7488" d="M879.836,2049.355l-17.242,27.273-5.486-27.273H844.716l8.009,35.12h5.789a16.755,16.755,0,0,1-2.426,4.22,10.656,10.656,0,0,1-2.908,2.517,8.9,8.9,0,0,1-3.372,1.109,16.882,16.882,0,0,1-3.815,0l-1.462,6.981a31.762,31.762,0,0,0,8.522.135,14.4,14.4,0,0,0,5.924-2.192,19.262,19.262,0,0,0,4.654-4.519q2.136-2.84,4.774-6.9l23.715-36.473Z" fill="#fff"/>
              <path id="Path_7489" data-name="Path 7489" d="M922.755,2048.758H910.146q-8.064,0-12.705,3.3t-6.094,10.227l-2.438,11.634q-1.452,6.928,1.807,10.228t11.322,3.3h12.609q8.6,0,13.337-3.22a14.419,14.419,0,0,0,6.026-9.388H923.187a4.354,4.354,0,0,1-2.688,3.273,17.657,17.657,0,0,1-6.638.948h-7.2a21.743,21.743,0,0,1-3.017-.19,5.5,5.5,0,0,1-2.223-.758,2.836,2.836,0,0,1-1.2-1.624,5.748,5.748,0,0,1,.042-2.786l.488-2.327h33.984l1.86-8.876q1.484-7.087-1.876-10.416T922.755,2048.758Zm2.508,13.854-.306,1.462H902.282l.329-1.571a7.26,7.26,0,0,1,1.126-2.786,5.17,5.17,0,0,1,1.883-1.623,7.37,7.37,0,0,1,2.533-.73,26.769,26.769,0,0,1,3.092-.164h7.2q4.437,0,5.941,1.218T925.263,2062.612Z" fill="#fff"/>
            </g>
          </g>
        </g>
        <g id="Group_1272" data-name="Group 1272">
          <g id="Group_1270" data-name="Group 1270">
            <path id="Path_7490" data-name="Path 7490" d="M777.41,2150.261l-5.439-13.5-5.691,5.573-1.472,7.932h-4.391l5.054-27.327h4.391l-2.387,12.814,13.039-12.814h5.756l-10.97,10.758,6.846,16.569Z" fill="#221e1e"/>
            <path id="Path_7491" data-name="Path 7491" d="M796.489,2150.261l5.054-27.327H806l-5.053,27.327Z" fill="#221e1e"/>
            <path id="Path_7492" data-name="Path 7492" d="M842.017,2150.261h-3.861l-2-18.53-8.861,18.53h-3.861l-2.11-27.327h4.67l1.088,18.9,8.968-18.9h3.475l1.9,18.957,8.158-18.957h4.67Z" fill="#221e1e"/>
            <path id="Path_7493" data-name="Path 7493" d="M878.167,2150.261l-.928-5.438H866.693l-2.878,5.438h-4.67l15.162-27.327h3.528l5.054,27.327Zm-3.262-20.587-6.2,11.354h7.985Z" fill="#221e1e"/>
            <path id="Path_7494" data-name="Path 7494" d="M917.448,2150.261l3.21-17.5-8.37,12.6h-3.263l-3.86-12.6-3.211,17.5h-4.39l5.054-27.327h3.966l5.054,17.113,11.3-17.113h3.966l-5.054,27.327Z" fill="#221e1e"/>
            <path id="Path_7495" data-name="Path 7495" d="M940.532,2150.261l5.054-27.327h4.458l-5.055,27.327Z" fill="#221e1e"/>
          </g>
          <g id="Group_1271" data-name="Group 1271">
            <path id="Path_7496" data-name="Path 7496" d="M777.41,2150.261l-5.439-13.5-5.691,5.573-1.472,7.932h-4.391l5.054-27.327h4.391l-2.387,12.814,13.039-12.814h5.756l-10.97,10.758,6.846,16.569Z" fill="url(#linear-gradient-3)"/>
            <path id="Path_7497" data-name="Path 7497" d="M796.489,2150.261l5.054-27.327H806l-5.053,27.327Z" fill="url(#linear-gradient-4)"/>
            <path id="Path_7498" data-name="Path 7498" d="M842.017,2150.261h-3.861l-2-18.53-8.861,18.53h-3.861l-2.11-27.327h4.67l1.088,18.9,8.968-18.9h3.475l1.9,18.957,8.158-18.957h4.67Z" fill="url(#linear-gradient-5)"/>
            <path id="Path_7499" data-name="Path 7499" d="M878.167,2150.261l-.928-5.438H866.693l-2.878,5.438h-4.67l15.162-27.327h3.528l5.054,27.327Zm-3.262-20.587-6.2,11.354h7.985Z" fill="url(#linear-gradient-6)"/>
            <path id="Path_7500" data-name="Path 7500" d="M917.448,2150.261l3.21-17.5-8.37,12.6h-3.263l-3.86-12.6-3.211,17.5h-4.39l5.054-27.327h3.966l5.054,17.113,11.3-17.113h3.966l-5.054,27.327Z" fill="url(#linear-gradient-7)"/>
            <path id="Path_7501" data-name="Path 7501" d="M940.532,2150.261l5.054-27.327h4.458l-5.055,27.327Z" fill="url(#linear-gradient-8)"/>
          </g>
        </g>
        <g id="Group_1274" data-name="Group 1274">
          <g id="Group_1273" data-name="Group 1273">
            <path id="Path_7502" data-name="Path 7502" d="M998.37,2085.618a28.17,28.17,0,0,0,3.323-5.633c1.8-3.828,1.228-6.284.505-7.368s-5.778-8.45-6.139-9.028-.344-3.834-.329-4.026c.182-1.7.315-3.389.433-5.071a.736.736,0,0,0,.025-.349c0-.058.009-.116.013-.174a18.041,18.041,0,0,1,.293-2.03c.054-.229.223-.943.229-.945a11.27,11.27,0,0,1,1.1-3.152,7.137,7.137,0,0,1,2.642-2.217,138.371,138.371,0,0,1,12.76-5.647,6.614,6.614,0,0,0,2.347-.692c.486-.73-.511-1.522-1.346-2.044-.317-.2-.611-.357-.791-.459-1.125-.639-2.45-1.718-3.756-1.934a8.074,8.074,0,0,0-3.777.4c-.623.125-3.805.947-5.406,1.391,0,0,.663-3.662,1.551-7.062,0,0,3.049-11.988,3.584-14.011a46.581,46.581,0,0,1,1.687-5c.01-.015.021-.03.03-.045.251-.316,3.2-3.361,3.716-3.729a2.365,2.365,0,0,0,.754-1.1s0-.536-2.677-1.009c-1.957-.345-6.772-.54-9.222-.62-.16-.007-.324-.014-.478-.019l-.961-.024h-.045c-4.369-.1-10.213-.116-10.933.383-.776.537-.7,2.029-.62,2.566a7.107,7.107,0,0,0,.74,2.149,14.527,14.527,0,0,1,1.91,6.507c-.056,2.424-2.3,20.168-2.6,24.813,0,.038,0,.072-.005.11-.013.216-.022.41-.025.558-5.521,1.736-10.387,3.348-11.879,3.816a15.916,15.916,0,0,1-5.458.785,11.825,11.825,0,0,1-3.417-.594c-.833-.282-1.325.791-1.41,1.667a29.244,29.244,0,0,0,.461,7.415c.288,1.8.547,4.04,2.148,5.193l.039.028c1.1.77,2.636-.637,3.643-1.106,1.885-.878,3.871-1.527,5.779-2.353,3.18-1.375,5.482-2.989,8.159-3.745l.577-.164a25.332,25.332,0,0,1-.365,3.187c-.514,2.224-.992,4.418-1.456,6.6a58.7,58.7,0,0,1-4.935,10.491c-.141.21-.6.891-1.336,1.9-.037.043-.071.088-.111.129a6.076,6.076,0,0,0-.523.737,95.875,95.875,0,0,1-9.92,11.473,5.412,5.412,0,0,0-1.5,1.409c-.988.9-2.007,1.753-3.043,2.558l-.052.048a60.533,60.533,0,0,1-5.424,4.259,56.242,56.242,0,0,1-4.848,3.027,43.333,43.333,0,0,1-6.345,3.075c-.651.231-3.226.941-3.226.941a10.785,10.785,0,0,0,2.6.2c-.133.095-.27.186-.406.279,0,0-1.978.181-2.511.245-.043.006-.083.013-.115.02a19.919,19.919,0,0,0,6.352-.531c-1.23.882-5.422,1.074-5.423,1.074.08.033.173.064.271.093l.092.026c.074.021.152.04.234.059l.107.024c.1.021.2.04.3.058l.062.012c.125.021.254.041.385.06l.106.014.3.038.112.013.344.036.045,0c.279.026.546.047.78.063l.229.015.257.015c.231.012.374.017.374.017l-1.5.212.049,0a24.139,24.139,0,0,0,2.605-.208c.943-.011,1.91.021,2.849-.065-.969.089-1.913.278-2.855.4-.946.093-1.877.225-2.8.246a34.813,34.813,0,0,0,4-.018,50.734,50.734,0,0,0,11.005-2.795,26.639,26.639,0,0,0,4.629-2.09,38.156,38.156,0,0,0,4.77-2.995c1.752-1.383,3.4-2.886,5.03-4.415q1.139-1.071,2.211-2.207.557-.588,1.093-1.2c.25-.283.916-.814,1.007-1.175,0,0-2.272,10.988-3.5,15.874l-5.627,26.559c-.049-.031-.957,4.692-.96,4.621a31.712,31.712,0,0,1-.775,3.622c.022.043.046.084.069.127l-.964,3.691c-.242.789.622,1.062,3.253-1.726a9.4,9.4,0,0,1,2.735-1.889,6.75,6.75,0,0,0,1.63-.566l.132-.072.2-.4a1.084,1.084,0,0,1,.634,0l.135-.1c.027-.191.051-.351.051-.351a1.6,1.6,0,0,1,.361-.09c.8-1.032,1.372-2.133,1.939-1.705.22.244,1.777-1.819,1.99-2.43a4.137,4.137,0,0,0,.115.41s.932-2.088,1.075-2.489c.65-1.832,3.4-15.87,4.343-19.926,3.79-16.344,7.074-34.847,7.074-34.847s2.4,6.838,2.909,8.817S998.37,2085.618,998.37,2085.618Z" fill="url(#linear-gradient-9)"/>
            <path id="Path_7503" data-name="Path 7503" d="M1009.406,2066.142a33.335,33.335,0,0,1-.469,8.484c-.042.19-.089.392-.138.6l-.036.1c-.809,3.229-4.668,16.364-5.213,18.119-.386,1.245-.929,2.275-1.031,2.97a.868.868,0,0,0,.191.678,1.643,1.643,0,0,0,1.282.585c2.173.065,5.909-.754,7.494-2.382,1.513-1.553,2.238-1.8,4.562-2.26s7.674-1.569,8.962-4.393c3.915-8.58,6.546-17.626,11.046-25.971.532-.992.865-1.585.865-1.585.158-.717-.917-1.791-2.876-2.875-2.53-1.4-4.546-2.1-5.991-2.1-.334,0-1.438.141-4.47,1.453-1.785.845-3.558,1.666-5.271,2.437a20.715,20.715,0,0,1-4.777,1.284A4.838,4.838,0,0,0,1009.406,2066.142Zm6.67,2,.146-1.175,7.908-1.314-.61,2.36-3.887,15.7a1.9,1.9,0,0,1-1.314,1.368l-5.045,1.465c.029-.515.047-1.034.064-1.555.244-1.417.483-2.827.71-4.195C1014.9,2076.332,1015.59,2072.079,1016.076,2068.143Z" fill="url(#linear-gradient-10)"/>
          </g>
          <path id="Path_7504" data-name="Path 7504" d="M1092.826,2014.239a13.842,13.842,0,0,0,1.753-7.1c-.017-.626-2.418-1.57-2.911-1.751a12.172,12.172,0,0,0-3.515-.674,30.4,30.4,0,0,0-8.349,1.01l-17.226,3.924,2.98-.867-9.465,1.98c-5.112,1.19-10.834,2.661-15.611,3.892,0,0-15.04,4.1-14.4,4.506.315.2.043.57-.133.763a3.548,3.548,0,0,1-1.212.787c-.4.181-.8.355-1.2.53-.322.141-.645.281-.967.423-1.655.728-1.153,1.564-.39,2.16.141.094.289.188.451.282a7.834,7.834,0,0,0,.846.472l.069.037a15.412,15.412,0,0,0,9.1,1.5c2.83-.457,9.46-2.857,14.865-3.672,1.329-.126,2.662-.206,4-.227l-2.861,2.537c-2.558,2.038-6.541,5.5-11.88,10.323-1.394,1.3-2.571,2.413-3.593,3.4l-2.6,2.306a12.316,12.316,0,0,0-3.357,3.962,4.994,4.994,0,0,0-.388,2.663,1.811,1.811,0,0,0,2.639,1.3,29.549,29.549,0,0,1,15.4-3.37,68.609,68.609,0,0,0-.852,8.032,66.517,66.517,0,0,1-.846,7.853c-.87,4.676-2.39,11.99-2.39,11.99.3-1.412.562-5.869.562-5.869-1.815,6.957-3.367,19.3-3.972,21.319s-2.319,10.486-2.319,10.486-1.1,1.029-4.314,1.152-6.608.186-6.608.186-.915,0,0,1.424c.159.247.4.554.668.893.075.092,3.008,4.091,2.651,5.116a7.916,7.916,0,0,1-.406,1.08,5.307,5.307,0,0,1-.946.832,3.028,3.028,0,0,1-.515.266c-1.589.687-5.612,1.776-5.612,1.776-5.409,1.024-11.364,1.588-21.211,2.687l-.333,1.3a.832.832,0,0,0,.313.826,1.075,1.075,0,0,1,.2,1.21c-.322.572-.97.966-1.1,1.609a.763.763,0,0,0,.927.789l-.533.788a.954.954,0,0,0,.083,1.207c.684.676.434,2.342-.118,3.4,27.558-4.123,55.744-6.488,83.216-1.828.924.157,2.063.239,2.6-.526a1.417,1.417,0,0,0,.168-.329s.089-.622.09-.862c0-3.172.446-6.353-1.564-9.033a11.441,11.441,0,0,0-7-4.372c-.413-.068-2.712.005-3.006.03-5.593.469-17.247-.138-29.738.441l-5.817.091a.413.413,0,0,1-.136-.807,54.44,54.44,0,0,0,23.1-15.58,59.591,59.591,0,0,0,4.557,9.375,4.4,4.4,0,0,0,2.376,2.27,4.292,4.292,0,0,0,2.51-.355,39.821,39.821,0,0,0,5.415-2.465,3.571,3.571,0,0,0,2.03-2.082,3.73,3.73,0,0,0-.925-2.73q-3.385-5.008-6.77-10.015a4.552,4.552,0,0,1-.292-5.775c4.216-9.038,8.973-18.4,17.905-22.84,1.079-.536,2.263-1.031,2.49-2.541a3.586,3.586,0,0,0-.288-2,4.5,4.5,0,0,0-.842-1.212c-.092-.091-.187-.178-.288-.261a14.759,14.759,0,0,0-2.656-1.771,12.843,12.843,0,0,0-5.717-1.858,6.123,6.123,0,0,0-3.639,1.425q-.647.487-1.289.981a31.105,31.105,0,0,1-7.354,4.2,41.762,41.762,0,0,1-4.415,1.584,17.783,17.783,0,0,1-4.471.156,7.689,7.689,0,0,1-2.756-.678.485.485,0,0,0-.688.518l.269,1.615a23.56,23.56,0,0,0,1.67,5.7,1.765,1.765,0,0,0,2.287.888,50.543,50.543,0,0,1,9.3-2.8l2.821-.584c-.172.661-3.705,5.608-5.352,8.722-1.606,2.647-3.576,6.351-3.823,6.1-.21-.21-3.234-5.686-4.875-8.919l-.066.013a51.418,51.418,0,0,0-.4,13.052,8.182,8.182,0,0,1,0,3.5c-.537,1.764-4.735,6.42-6.652,8.809a.1.1,0,0,0,.09.153l1.835-.2c-2.512,3.429-4.65,6.566-7.881,9.327.086-.338-.149-1.8-.12-2.224a184.141,184.141,0,0,1,5.92-35.194l.972-3.5c.413-1.42.831-2.839,1.278-4.249q.316-1,.656-2c1.92-4.638,3.917-9.832,5.874-11.66a.556.556,0,0,0,.165-.6c-.249-.713-1.016-1.673-2.86-2.841l-3.957-2.559a5.386,5.386,0,0,0-3.139-.487l-6.736.985,1.566-1.639a129.6,129.6,0,0,1,10.685-8.618,78.338,78.338,0,0,1,8.694-3.323l-.256-2.29c.477-.285.958-.562,1.447-.825,2.4-.706,5.286-1.511,8.018-2.094l19.541-2.937a2.221,2.221,0,0,0,1.7-.818C1094.015,2014.789,1093.36,2013.864,1092.826,2014.239Z" fill="url(#linear-gradient-11)"/>
        </g>
        <g id="Group_1281" data-name="Group 1281">
          <g id="Group_1280" data-name="Group 1280" clip-path="url(#clip-path)">
            <g id="Group_1279" data-name="Group 1279">
              <g id="Group_1276" data-name="Group 1276">
                <path id="Path_7505" data-name="Path 7505" d="M590.586,2086.588c-.007-8.276,99.937-15.007,223.221-15.032s223.229,6.665,223.228,14.939-99.933,15-223.221,15.034S590.588,2094.864,590.586,2086.588Z" fill="url(#radial-gradient)" style="mix-blend-mode: screen;isolation: isolate"/>
                <path id="Path_7506" data-name="Path 7506" d="M685.758,2086.566c-.007-16.666,57.32-30.187,128.042-30.208s128.06,13.494,128.062,30.152-57.322,30.186-128.045,30.207S685.761,2103.227,685.758,2086.566Z" fill="url(#radial-gradient-2)" style="mix-blend-mode: color-dodge;isolation: isolate"/>
                <g id="Group_1275" data-name="Group 1275">
                  <path id="Path_7507" data-name="Path 7507" d="M611.2,2086.579c0-5.546,90.708-10.069,202.607-10.093s202.612,4.463,202.61,10.014-90.7,10.064-202.606,10.094S611.2,2092.129,611.2,2086.579Z" fill="url(#radial-gradient-3)" style="mix-blend-mode: screen;isolation: isolate"/>
                  <path id="Path_7508" data-name="Path 7508" d="M685.758,2086.566c-.007-3.518,57.323-6.362,128.051-6.379s128.056,2.816,128.053,6.323-57.329,6.369-128.05,6.378S685.76,2090.078,685.758,2086.566Z" fill="url(#radial-gradient-4)" style="mix-blend-mode: color-dodge;isolation: isolate"/>
                </g>
              </g>
              <g id="Group_1278" data-name="Group 1278">
                <path id="Path_7509" data-name="Path 7509" d="M235.756,2033.739c-.008-8.276,99.937-15.007,223.221-15.032s223.229,6.665,223.228,14.939-99.933,15-223.221,15.034S235.757,2042.014,235.756,2033.739Z" fill="url(#radial-gradient-5)" style="mix-blend-mode: screen;isolation: isolate"/>
                <path id="Path_7510" data-name="Path 7510" d="M330.927,2033.717c-.006-16.666,57.321-30.187,128.042-30.208S587.03,2017,587.032,2033.66s-57.322,30.186-128.045,30.208S330.931,2050.378,330.927,2033.717Z" fill="url(#radial-gradient-6)" style="mix-blend-mode: color-dodge;isolation: isolate"/>
                <g id="Group_1277" data-name="Group 1277">
                  <path id="Path_7511" data-name="Path 7511" d="M256.372,2033.73c0-5.547,90.708-10.069,202.606-10.094s202.613,4.463,202.611,10.015-90.7,10.064-202.606,10.093S256.374,2039.279,256.372,2033.73Z" fill="url(#radial-gradient-7)" style="mix-blend-mode: screen;isolation: isolate"/>
                  <path id="Path_7512" data-name="Path 7512" d="M330.927,2033.717c-.006-3.518,57.324-6.363,128.052-6.379s128.056,2.816,128.053,6.322-57.329,6.37-128.05,6.378S330.93,2037.229,330.927,2033.717Z" fill="url(#radial-gradient-8)" style="mix-blend-mode: color-dodge;isolation: isolate"/>
                </g>
              </g>
            </g>
          </g>
        </g>
      </g>
    </g>
  </g>
</svg>
