<svg xmlns="http://www.w3.org/2000/svg" width="246.37" height="46.21" viewBox="0 0 246.37 46.21"><rect x="1" y="1" width="244.37" height="44.21" rx="10.7" style="stroke:#fff;stroke-miterlimit:10;stroke-width:2px"/><path d="M23.94,32.68h25c0-.12,0-.24,0-.37V27.74A1.7,1.7,0,0,1,50.37,26a1.66,1.66,0,0,1,1.84,1.16,1.75,1.75,0,0,1,.08.55v6.6a1.65,1.65,0,0,1-1.64,1.72H22.44a1.69,1.69,0,0,1-1.85-1.84c0-2.13,0-4.26,0-6.38a1.67,1.67,0,0,1,1.23-1.77,1.63,1.63,0,0,1,2.09,1.43c.05,1.05,0,2.1,0,3.14Z" style="fill:#fff"/><path d="M34.76,24.07v-.6c0-3.95,0-7.9,0-11.86A1.76,1.76,0,0,1,35.5,10a1.59,1.59,0,0,1,1.69-.11,1.54,1.54,0,0,1,.91,1.38c0,.73,0,1.47,0,2.2V24.06c.17-.15.28-.24.38-.34l3.39-3.4a1.67,1.67,0,0,1,2.82.54,1.63,1.63,0,0,1-.41,1.8L38.1,28.84l-.4.4a1.68,1.68,0,0,1-2.53,0L30,24.07l-1.39-1.38a1.7,1.7,0,0,1-.1-2.41,1.68,1.68,0,0,1,2.46,0c1.14,1.13,2.26,2.27,3.4,3.4Z" style="fill:#fff"/><path d="M68.65,26.21h-1V24.86h2.74v1.35L66.2,31.27H64.46V24.78a7.33,7.33,0,0,1,.08-1.15,4.83,4.83,0,0,1,.29-1.07,3.8,3.8,0,0,1,.55-.93,3.25,3.25,0,0,1,.85-.75,4.37,4.37,0,0,1,1.2-.49,6.58,6.58,0,0,1,1.62-.18,6.33,6.33,0,0,1,1.59.18,4.31,4.31,0,0,1,1.21.49,3.25,3.25,0,0,1,.85.75,3.8,3.8,0,0,1,.55.93,4.85,4.85,0,0,1,.3,1.07,7.33,7.33,0,0,1,.09,1.15v6.49H71.87V24.54a3.74,3.74,0,0,0-.05-.66,2.91,2.91,0,0,0-.17-.66,2.46,2.46,0,0,0-.33-.59,2,2,0,0,0-.52-.47,2.37,2.37,0,0,0-.74-.32,4.35,4.35,0,0,0-2,0,2.33,2.33,0,0,0-.75.32,1.86,1.86,0,0,0-.53.47,2.46,2.46,0,0,0-.33.59,2.93,2.93,0,0,0-.18.66,5,5,0,0,0,0,.66V29Z" style="fill:#fff"/><path d="M75,23.59a3.62,3.62,0,0,1,.14-1,3.38,3.38,0,0,1,.41-.83,3,3,0,0,1,.63-.66,3.89,3.89,0,0,1,1.67-.75,4.32,4.32,0,0,1,1-.1,4.62,4.62,0,0,1,1.47.22,3.19,3.19,0,0,1,1.17.65,3,3,0,0,1,.78,1.11,4.25,4.25,0,0,1,.28,1.58v7.47H80.79v-7.1a2.88,2.88,0,0,0-.5-1.87,1.8,1.8,0,0,0-1.45-.58,1.8,1.8,0,0,0-2,1.87Z" style="fill:#fff"/><path d="M90.84,25.86A9.25,9.25,0,0,0,90.67,24a4.1,4.1,0,0,0-.5-1.3,2.05,2.05,0,0,0-.78-.77,2.16,2.16,0,0,0-1.06-.26,2.32,2.32,0,0,0-.84.16,2,2,0,0,0-.69.46,2.2,2.2,0,0,0-.48.77,3.31,3.31,0,0,0-.23,1.07H84.3a4.5,4.5,0,0,1,.33-1.58,3.76,3.76,0,0,1,2.08-2.06,4.45,4.45,0,0,1,1.62-.29,4.31,4.31,0,0,1,1.94.41,3.69,3.69,0,0,1,1.36,1.15,5.06,5.06,0,0,1,.8,1.79,10.48,10.48,0,0,1,0,4.64,5,5,0,0,1-.8,1.78,3.6,3.6,0,0,1-1.36,1.15,4.31,4.31,0,0,1-1.94.4,4.45,4.45,0,0,1-1.62-.29,3.65,3.65,0,0,1-1.25-.81,3.74,3.74,0,0,1-.83-1.25,4.45,4.45,0,0,1-.33-1.58h1.79a3.31,3.31,0,0,0,.23,1.07,2.29,2.29,0,0,0,.48.77,2,2,0,0,0,.69.46,2.32,2.32,0,0,0,.84.15,2.16,2.16,0,0,0,1.06-.25,2.06,2.06,0,0,0,.78-.75,4.2,4.2,0,0,0,.5-1.3A9.25,9.25,0,0,0,90.84,25.86Z" style="fill:#fff"/><path d="M101.77,31.27l0-1.74A3.59,3.59,0,0,1,100.3,31a4.29,4.29,0,0,1-2.12.5,4.65,4.65,0,0,1-1.79-.3,2.81,2.81,0,0,1-1.15-.82,3.21,3.21,0,0,1-.6-1.26,6.72,6.72,0,0,1-.18-1.61v-7.1H96.2v7.31a2.36,2.36,0,0,0,.16.9,1.8,1.8,0,0,0,.45.69,1.94,1.94,0,0,0,.7.44,2.52,2.52,0,0,0,.93.16,3.46,3.46,0,0,0,1.42-.26,2.84,2.84,0,0,0,1-.71,3.19,3.19,0,0,0,.6-1.07,4.56,4.56,0,0,0,.2-1.36v-6.1h1.76V31.27Z" style="fill:#fff"/><path d="M104,17.07a2.58,2.58,0,0,0-1.49.37,1.38,1.38,0,0,0-.51,1.19h-1.64a2.7,2.7,0,0,1,.25-1.19,2.61,2.61,0,0,1,.72-.9,3.21,3.21,0,0,1,1.14-.57,5.49,5.49,0,0,1,1.53-.21Z" style="fill:#fff"/><path d="M106.23,18.73a2.08,2.08,0,0,0-.13-.74,1.49,1.49,0,0,0-.35-.54,1.52,1.52,0,0,0-.51-.32,1.84,1.84,0,0,0-.62-.11l.36-1.4h5l.79,1.4h-3.48a1.54,1.54,0,0,1,.3.32,1.78,1.78,0,0,1,.22.41,2.44,2.44,0,0,1,.14.46,2.69,2.69,0,0,1,0,.47V29.92h1.13v1.35h-2.87Z" style="fill:#fff"/><path d="M112.59,20.45v4.22l4.88-4.22h2.58l-2.5,2.11a2.49,2.49,0,0,1,1.63,1.38A4.07,4.07,0,0,1,119.5,25a10.72,10.72,0,0,1,.08,1.31v4.93h-1.74V26.12a3.41,3.41,0,0,0-.1-.85,2.11,2.11,0,0,0-.3-.72,2,2,0,0,0-.5-.54,1.78,1.78,0,0,0-.74-.28l-3.61,3.11v4.43h-1.74V20.45Z" style="fill:#fff"/><path d="M128.65,26.21a3.76,3.76,0,0,0-.53-.05,6.87,6.87,0,0,0-.91,0l-.87.06a6.91,6.91,0,0,0-.91.15,6.09,6.09,0,0,0-.86.25,2.92,2.92,0,0,0-.72.4,1.74,1.74,0,0,0-.5.58,1.57,1.57,0,0,0-.18.77,1.62,1.62,0,0,0,.19.83,1.49,1.49,0,0,0,.51.52,2,2,0,0,0,.7.27,5.16,5.16,0,0,0,.79.07,3.28,3.28,0,0,0,.56,0,3.86,3.86,0,0,0,.49-.1V31.3a4.49,4.49,0,0,1-.71.15,4.42,4.42,0,0,1-.76.06,5.53,5.53,0,0,1-1.37-.16,3.3,3.3,0,0,1-1.14-.52,2.6,2.6,0,0,1-.77-.93,3.12,3.12,0,0,1-.29-1.4,3.36,3.36,0,0,1,.27-1.4,3.14,3.14,0,0,1,.72-1,3.82,3.82,0,0,1,1-.69,6.33,6.33,0,0,1,1.25-.42,9.7,9.7,0,0,1,1.33-.21c.45,0,.88-.06,1.29-.06H128l.64,0v-1a2.28,2.28,0,0,0-.21-1.05,1.77,1.77,0,0,0-.56-.62,2.25,2.25,0,0,0-.77-.3,5,5,0,0,0-.86-.07,4.74,4.74,0,0,0-1,.1,2.15,2.15,0,0,0-.83.35,1.69,1.69,0,0,0-.56.65,2.46,2.46,0,0,0-.24,1h-1.8a4.3,4.3,0,0,1,.2-1.2,3.43,3.43,0,0,1,.49-.93,3.1,3.1,0,0,1,.73-.67,4,4,0,0,1,.93-.46,5.07,5.07,0,0,1,1.07-.25,9,9,0,0,1,1.18-.08,7,7,0,0,1,.9.06,5.8,5.8,0,0,1,.92.2,3.6,3.6,0,0,1,.84.4,2.66,2.66,0,0,1,.7.64,2.75,2.75,0,0,1,.47.92,3.88,3.88,0,0,1,.18,1.25v7.56h-1.75Z" style="fill:#fff"/><path d="M136.7,26.21h-1V24.86h2.74v1.35l-4.19,5.06h-1.74V24.78a8.77,8.77,0,0,1,.08-1.15,4.83,4.83,0,0,1,.29-1.07,3.8,3.8,0,0,1,.55-.93,3.25,3.25,0,0,1,.85-.75,4.31,4.31,0,0,1,1.21-.49,7.25,7.25,0,0,1,3.21,0,4.37,4.37,0,0,1,1.2.49,3.25,3.25,0,0,1,.85.75,3.51,3.51,0,0,1,.55.93,4.85,4.85,0,0,1,.3,1.07,7.33,7.33,0,0,1,.09,1.15v6.49h-1.77V24.54a5,5,0,0,0,0-.66,3.55,3.55,0,0,0-.17-.66,2.91,2.91,0,0,0-.34-.59,2,2,0,0,0-.52-.47,2.27,2.27,0,0,0-.74-.32,3.83,3.83,0,0,0-1-.12,4,4,0,0,0-1,.12,2.33,2.33,0,0,0-.75.32,2,2,0,0,0-.53.47,2.46,2.46,0,0,0-.33.59,2.91,2.91,0,0,0-.17.66,3.74,3.74,0,0,0-.05.66V29Z" style="fill:#fff"/><path d="M143.8,31.27V20.45h1.74V31.27Zm3.67,0V20.45h1.75V31.27Z" style="fill:#fff"/><path d="M153.06,31.27h-1.74V24.8a7.2,7.2,0,0,1,.09-1.14,4.76,4.76,0,0,1,.28-1.08,4.17,4.17,0,0,1,.54-.94,3.37,3.37,0,0,1,.84-.75,4.38,4.38,0,0,1,1.2-.5,6.33,6.33,0,0,1,1.59-.18,6.24,6.24,0,0,1,1.58.18,4.18,4.18,0,0,1,1.19.5,3.25,3.25,0,0,1,.85.75,4.17,4.17,0,0,1,.54.94,4.3,4.3,0,0,1,.29,1.08,7.2,7.2,0,0,1,.09,1.14v6.47h-1.77v-6.7a3.88,3.88,0,0,0-.06-.67,2.94,2.94,0,0,0-.19-.66,2.66,2.66,0,0,0-.34-.59,2.26,2.26,0,0,0-.53-.49,2.2,2.2,0,0,0-.71-.32,3.4,3.4,0,0,0-.94-.12,3.35,3.35,0,0,0-.94.12,2.16,2.16,0,0,0-.72.32,2.08,2.08,0,0,0-.53.49,2.7,2.7,0,0,0-.35.59,3,3,0,0,0-.2.66,3.88,3.88,0,0,0-.06.67V27a5,5,0,0,1,.65-1,3.27,3.27,0,0,1,.79-.66,3.19,3.19,0,0,1,.95-.37,5.13,5.13,0,0,1,1.15-.1v1.47a4.36,4.36,0,0,0-1.62.27,2.63,2.63,0,0,0-1.1.75,3.09,3.09,0,0,0-.62,1.21,6,6,0,0,0-.2,1.6Z" style="fill:#fff"/><path d="M164.25,31.27h-1.74V24.73a8.26,8.26,0,0,1,.06-1,7.13,7.13,0,0,1,.21-.94,4.45,4.45,0,0,1,.39-.86,3.48,3.48,0,0,1,.6-.72,3.43,3.43,0,0,1,.85-.54,4.22,4.22,0,0,1,1.12-.33l1.42,1.49,1.32-1.49a4.07,4.07,0,0,1,1.63.56,3.47,3.47,0,0,1,1,1,3.76,3.76,0,0,1,.51,1.33,7.31,7.31,0,0,1,.15,1.49v6.54H170V24.51a4.76,4.76,0,0,0-.06-.72,3.21,3.21,0,0,0-.21-.75,2.38,2.38,0,0,0-.37-.64,1.24,1.24,0,0,0-.57-.39l-1.45,1.5-.1.07a.15.15,0,0,1-.11,0,.21.21,0,0,1-.14,0l-.1-.07L165.44,22a1.23,1.23,0,0,0-.55.41,2.22,2.22,0,0,0-.37.63,3.67,3.67,0,0,0-.2.74,4.85,4.85,0,0,0-.07.72V29l2.46-2.82h-1V24.86h2.78v1.35Z" style="fill:#fff"/><path d="M175.63,31.27h-1.74V24.73a8.26,8.26,0,0,1,.06-1,4.93,4.93,0,0,1,.21-.94,4.45,4.45,0,0,1,.39-.86,3,3,0,0,1,.6-.72,3.37,3.37,0,0,1,.84-.54,4.34,4.34,0,0,1,1.12-.33l1.42,1.49,1.32-1.49a4.07,4.07,0,0,1,1.63.56,3.35,3.35,0,0,1,1,1,4,4,0,0,1,.52,1.33,8.1,8.1,0,0,1,.14,1.49v6.54h-1.74V24.51a4.85,4.85,0,0,0-.07-.72,3.21,3.21,0,0,0-.21-.75,2.14,2.14,0,0,0-.37-.64,1.19,1.19,0,0,0-.57-.39l-1.45,1.5-.1.07a.15.15,0,0,1-.11,0,.23.23,0,0,1-.14,0l-.1-.07L176.81,22a1.23,1.23,0,0,0-.55.41,2.82,2.82,0,0,0-.37.63,3.67,3.67,0,0,0-.2.74,4.76,4.76,0,0,0-.06.72V29l2.45-2.82h-1V24.86h2.77v1.35Z" style="fill:#fff"/><path d="M184.54,23.59a3.29,3.29,0,0,1,.15-1,3.38,3.38,0,0,1,.41-.83,3,3,0,0,1,.62-.66,4.12,4.12,0,0,1,.79-.47,4.3,4.3,0,0,1,.88-.28,4.41,4.41,0,0,1,1-.1,4.6,4.6,0,0,1,1.46.22,3.23,3.23,0,0,1,1.18.65,2.88,2.88,0,0,1,.77,1.11A4.05,4.05,0,0,1,192,23.8v7.47H190.3v-7.1a2.88,2.88,0,0,0-.5-1.87,1.81,1.81,0,0,0-1.45-.58,1.8,1.8,0,0,0-2,1.87Z" style="fill:#fff"/><path d="M201.11,26.21a3.76,3.76,0,0,0-.53-.05,6.87,6.87,0,0,0-.91,0l-.87.06a6.91,6.91,0,0,0-.91.15,5.72,5.72,0,0,0-.86.25,3,3,0,0,0-.73.4,1.83,1.83,0,0,0-.49.58,1.57,1.57,0,0,0-.18.77,1.62,1.62,0,0,0,.19.83,1.56,1.56,0,0,0,.5.52A2.09,2.09,0,0,0,197,30a5.16,5.16,0,0,0,.79.07,3.36,3.36,0,0,0,.56,0,3.86,3.86,0,0,0,.49-.1V31.3a4.49,4.49,0,0,1-.71.15,4.42,4.42,0,0,1-.76.06,5.53,5.53,0,0,1-1.37-.16,3.3,3.3,0,0,1-1.14-.52,2.6,2.6,0,0,1-.77-.93,3.12,3.12,0,0,1-.29-1.4,3.36,3.36,0,0,1,.27-1.4,3.14,3.14,0,0,1,.72-1,3.82,3.82,0,0,1,1.05-.69,6.33,6.33,0,0,1,1.25-.42,9.7,9.7,0,0,1,1.33-.21c.45,0,.88-.06,1.29-.06h.73l.64,0v-1a2.28,2.28,0,0,0-.21-1.05,1.77,1.77,0,0,0-.56-.62,2.25,2.25,0,0,0-.77-.3,5.07,5.07,0,0,0-.86-.07,4.9,4.9,0,0,0-1,.1,2.17,2.17,0,0,0-.82.35,1.69,1.69,0,0,0-.56.65,2.46,2.46,0,0,0-.24,1h-1.8a4.3,4.3,0,0,1,.2-1.2,3.43,3.43,0,0,1,.49-.93,3.1,3.1,0,0,1,.73-.67,4,4,0,0,1,.93-.46,5.07,5.07,0,0,1,1.07-.25,9,9,0,0,1,1.18-.08,7,7,0,0,1,.9.06,5.8,5.8,0,0,1,.92.2,3.6,3.6,0,0,1,.84.4,2.66,2.66,0,0,1,.7.64,3,3,0,0,1,.47.92,3.9,3.9,0,0,1,.17,1.25v7.56h-1.74Z" style="fill:#fff"/><path d="M196.92,16.41a1,1,0,0,0,0,.23.51.51,0,0,0,.11.25.67.67,0,0,0,.23.21,1,1,0,0,0,.42.08.83.83,0,0,0,.36-.07.67.67,0,0,0,.26-.21.74.74,0,0,0,.16-.32,1.78,1.78,0,0,0,0-.41h1.16a1.37,1.37,0,0,0,0,.41.86.86,0,0,0,.15.32.64.64,0,0,0,.25.21,1,1,0,0,0,.74,0,.52.52,0,0,0,.22-.22.76.76,0,0,0,.1-.31,2.71,2.71,0,0,0,0-.4h1.32a2.81,2.81,0,0,1,0,1.06,1.76,1.76,0,0,1-.37.72,1.59,1.59,0,0,1-.61.42,2.11,2.11,0,0,1-.75.13,1.66,1.66,0,0,1-.61-.11,1.75,1.75,0,0,1-.48-.29,1.48,1.48,0,0,1-.33-.38,1.24,1.24,0,0,1-.16-.41,1,1,0,0,1-.17.41,1.71,1.71,0,0,1-.38.38,2.25,2.25,0,0,1-.53.29,1.88,1.88,0,0,1-.62.11,2.22,2.22,0,0,1-1-.21,2,2,0,0,1-.66-.51,2.1,2.1,0,0,1-.35-.68,2.59,2.59,0,0,1-.11-.69,2.25,2.25,0,0,1,.23-1,2,2,0,0,1,.6-.69,2.64,2.64,0,0,1,.87-.39,4.31,4.31,0,0,1,1-.12h5.11v1.24h-4.93a1.89,1.89,0,0,0-.7.1,1,1,0,0,0-.39.26.65.65,0,0,0-.16.32A1.27,1.27,0,0,0,196.92,16.41Z" style="fill:#fff"/><path d="M204.63,23.8a5,5,0,0,1,.51-1.46,3.86,3.86,0,0,1,.93-1.15,4.44,4.44,0,0,1,1.36-.74,5.9,5.9,0,0,1,1.81-.26,4.91,4.91,0,0,1,2.2.44,3.83,3.83,0,0,1,1.46,1.2,5,5,0,0,1,.82,1.81,9.37,9.37,0,0,1,.25,2.24,10.07,10.07,0,0,1-.11,1.47,7.85,7.85,0,0,1-.35,1.33,5.08,5.08,0,0,1-.62,1.15,3.88,3.88,0,0,1-2.09,1.47,5.24,5.24,0,0,1-1.53.21,5.17,5.17,0,0,1-1.54-.21,4.16,4.16,0,0,1-1.2-.57,4,4,0,0,1-.89-.89,5,5,0,0,1-.59-1.15,6.82,6.82,0,0,1-.35-1.33,10.2,10.2,0,0,1-.11-1.48v-.6h4.68v1.35h-2.85a4.6,4.6,0,0,0,.2,1.38,3.3,3.3,0,0,0,.59,1.08,2.53,2.53,0,0,0,.9.69,2.6,2.6,0,0,0,1.16.25,2.54,2.54,0,0,0,1.21-.28,2.59,2.59,0,0,0,.92-.8,4,4,0,0,0,.57-1.3,7.25,7.25,0,0,0,.2-1.77A7.93,7.93,0,0,0,212,24.1a3.83,3.83,0,0,0-.55-1.31,2.43,2.43,0,0,0-.92-.8,2.84,2.84,0,0,0-1.28-.27,3.77,3.77,0,0,0-1,.14,2.76,2.76,0,0,0-.84.42,2.19,2.19,0,0,0-.59.66,2.34,2.34,0,0,0-.31.86Z" style="fill:#fff"/><path d="M217.39,31.27h-1.74V24.8a8.62,8.62,0,0,1,.08-1.14,5.36,5.36,0,0,1,.29-1.08,4.17,4.17,0,0,1,.54-.94,3.37,3.37,0,0,1,.84-.75,4.38,4.38,0,0,1,1.2-.5,7.07,7.07,0,0,1,3.17,0,4.31,4.31,0,0,1,1.19.5,3.05,3.05,0,0,1,.84.75,3.86,3.86,0,0,1,.55.94,4.77,4.77,0,0,1,.29,1.08,7.2,7.2,0,0,1,.09,1.14v6.47H223v-6.7a3.88,3.88,0,0,0-.06-.67,2.94,2.94,0,0,0-.19-.66,2.36,2.36,0,0,0-.35-.59,2,2,0,0,0-.52-.49,2.16,2.16,0,0,0-.72-.32,3.7,3.7,0,0,0-1.87,0,2.31,2.31,0,0,0-.73.32,2.21,2.21,0,0,0-.52.49,2.7,2.7,0,0,0-.35.59,3,3,0,0,0-.2.66,3.88,3.88,0,0,0-.06.67V27a4.55,4.55,0,0,1,.65-1,3.1,3.1,0,0,1,1.73-1,5.28,5.28,0,0,1,1.16-.1v1.47a4.36,4.36,0,0,0-1.62.27,2.63,2.63,0,0,0-1.1.75,3.09,3.09,0,0,0-.62,1.21,6,6,0,0,0-.2,1.6Z" style="fill:#fff"/></svg>