<svg width="32" height="41" viewBox="0 0 32 41" fill="none" xmlns="http://www.w3.org/2000/svg">
<g clip-path="url(#clip0_8_290)">
<path opacity="0.75" d="M-1.14441e-05 24.1207C-1.14441e-05 32.8961 7.11293 40.01 15.8872 40.01C24.6615 40.01 31.7744 32.8961 31.7744 24.1207V15.8994C31.7744 7.12392 24.6615 0.0100098 15.8872 0.0100098C7.11293 0.0100098 -1.14441e-05 7.12392 -1.14441e-05 15.8994V24.1207Z" fill="#1A2A40"/>
<path d="M19.3974 29.5072L10.2198 20.3252C10.1022 20.2057 10.0363 20.0447 10.0363 19.8771C10.0363 19.7094 10.1022 19.5484 10.2198 19.4289L19.3974 10.2512C19.4985 10.1508 19.6305 10.0872 19.7721 10.0708C19.9136 10.0545 20.0566 10.0863 20.1779 10.161C20.2993 10.2358 20.3919 10.3493 20.4409 10.4831C20.4899 10.6169 20.4925 10.7634 20.4481 10.8988L17.5362 19.6776C17.4933 19.8071 17.4933 19.947 17.5362 20.0765L20.4481 28.8596C20.4925 28.995 20.4899 29.1415 20.4409 29.2753C20.3919 29.4091 20.2993 29.5226 20.1779 29.5974C20.0566 29.6721 19.9136 29.7039 19.7721 29.6875C19.6305 29.6712 19.4985 29.6076 19.3974 29.5072V29.5072Z" fill="white" stroke="white" stroke-width="1.37" stroke-miterlimit="10"/>
</g>
<defs>
<clipPath id="clip0_8_290">
<rect width="32" height="41" fill="white"/>
</clipPath>
</defs>
</svg>
