<svg xmlns="http://www.w3.org/2000/svg" viewBox="0 0 476.88 69.29"><defs><style>.cls-1{fill:#e82329;}.cls-1,.cls-3,.cls-5,.cls-7{fill-rule:evenodd;}.cls-2,.cls-3{fill:#261e1f;}.cls-4,.cls-5{fill:#fff;}.cls-6,.cls-7{fill:#0098d5;}</style></defs><g id="Layer_2" data-name="Layer 2"><g id="LOGO"><polygon class="cls-1" points="0 68.43 13.04 45.71 65.85 45.71 79.15 68.43 52.94 68.43 26.34 23.11 39.51 0 52.81 23.11 26.47 68.43 0 68.43"/><path class="cls-2" d="M143.4,25.44h4.48c.16-4.19-3.25-7-8.21-7.08-5.66-.05-8.39,2.38-8.77,6.05s1.69,5.53,4.18,6.37c3,1,7.2,1.1,8.72,2.7.86.92.43,3-.32,3.71a4.39,4.39,0,0,1-3.08,1.14A5.57,5.57,0,0,1,136.05,37a3.35,3.35,0,0,1-1-2.36h-4.64a8,8,0,0,0,3.25,6,10.62,10.62,0,0,0,5.66,1.6c2.57,0,4.89-.15,7.13-2.08,1.59-1.36,2.65-4.49,1.59-7.63-.72-2.09-3-3.42-5.42-3.92-.88-.19-5.34-1.22-5.88-1.81-1.06-.42-1.14-1.23-1.18-2.21-.05-1.28,1.6-2.68,3.92-2.68,2.94.06,4,1.7,3.89,3.6"/><polygon class="cls-2" points="93.14 41.58 97.87 41.58 102.68 23.39 102.68 41.61 107.15 41.62 107.15 18.5 99.95 18.5 95.51 35.99 90.82 18.5 83.9 18.5 83.9 41.58 88.32 41.58 88.33 23.39 93.14 41.58"/><rect class="cls-2" x="108.98" y="18.47" width="4.61" height="23.08"/><polygon class="cls-2" points="130.56 18.55 114.53 18.55 114.53 22.52 120.13 22.52 120.13 41.64 124.78 41.64 124.78 22.52 130.56 22.52 130.56 18.55"/><path class="cls-2" d="M168.23,18.51h-4.77v16c0,1.43-.68,3.71-4.44,3.71s-4.29-2.28-4.34-3.71v-16h-4.77V34.42c0,2.28,1,5,4.77,7.13a12.38,12.38,0,0,0,4.48.76,11.87,11.87,0,0,0,4.72-.93,7.2,7.2,0,0,0,4.35-7Z"/><rect class="cls-2" x="188.79" y="18.51" width="4.76" height="23.08"/><polygon class="cls-2" points="213.97 18.51 213.97 41.59 218.47 41.59 218.47 31.46 227.53 31.46 227.53 41.59 232.35 41.59 232.35 18.51 227.53 18.51 227.53 27.2 218.47 27.2 218.47 18.51 213.97 18.51"/><rect class="cls-2" x="234.19" y="18.51" width="4.77" height="23.08"/><polygon class="cls-2" points="101.1 45.21 84.24 45.21 84.24 68.51 101.66 68.51 101.66 64.51 88.85 64.51 88.85 58.5 100.01 58.5 100.01 54.49 88.85 54.49 88.85 49.22 101.1 49.22 101.1 45.21"/><polygon class="cls-2" points="107.58 45.21 102.77 45.21 102.77 68.51 118.7 68.51 118.7 64.51 107.58 64.51 107.58 45.21"/><polygon class="cls-2" points="136.12 45.21 119.41 45.21 119.41 68.51 136.56 68.51 136.56 64.51 124.12 64.51 124.12 58.5 134.98 58.5 134.98 54.49 124.12 54.49 124.12 49.22 136.12 49.22 136.12 45.21"/><rect class="cls-2" x="192.3" y="45.22" width="4.81" height="23.29"/><polygon class="cls-2" points="172.38 45.19 156.15 45.23 156.17 49.35 161.95 49.3 161.96 68.63 166.67 68.63 166.66 49.35 172.35 49.35 172.38 45.19"/><path class="cls-3" d="M174.22,37.63v-6h6.46a2.6,2.6,0,0,1,2.44,2.87c0,3-1.9,3.09-3.33,3.09Zm-.11-9.92,0-4.86h5.7c1.66,0,2.56.64,2.51,2.4s-.82,2.46-2.85,2.46Zm-4.62-9.2V41.59h10.38a11.84,11.84,0,0,0,5.72-1.41,5.68,5.68,0,0,0,2.3-5,6.36,6.36,0,0,0-3.27-5.47,5.82,5.82,0,0,0,2.57-5.11c0-1.92-.75-6.05-8.21-6Z"/><path class="cls-2" d="M207.49,25.66H212c.15-4.18-3.25-7-8.22-7.07-5.66-.05-8.39,2.37-8.76,6s1.68,5.53,4.18,6.38c3,1,7.19,1.1,8.72,2.7.86.92.42,3-.33,3.7a4.35,4.35,0,0,1-3.08,1.15,5.61,5.61,0,0,1-4.35-1.35,3.33,3.33,0,0,1-1-2.37h-4.65a8,8,0,0,0,3.25,6,10.82,10.82,0,0,0,5.65,1.6c2.58,0,4.9-.16,7.14-2.08a7.33,7.33,0,0,0,1.58-7.63c-.7-2.1-3-3.42-5.4-3.93-.9-.19-5.34-1.21-5.89-1.8-1-.43-1.14-1.25-1.18-2.21,0-1.28,1.6-2.68,3.92-2.68,2.95.05,4,1.7,3.9,3.59"/><path class="cls-3" d="M177.81,49.42l5.91-.05a2.82,2.82,0,0,1,3,3,3.09,3.09,0,0,1-3.36,3h-5.55Zm13.7,19.12a3.5,3.5,0,0,1-.94-2.7c0-1.2-.15-3.52-.28-4.5a6.08,6.08,0,0,0-2.65-3.63,7,7,0,0,0,3.44-4.27,6.26,6.26,0,0,0-.14-4.08,5.92,5.92,0,0,0-5-4.12H173v23.3h4.81v-9.2h4.69c2.87.17,3.86,3.29,3.9,7a5.66,5.66,0,0,0,.29,2.2Z"/><path class="cls-2" d="M217.58,61.35H213c.07,2-2.13,3.82-4.73,3.81a4.92,4.92,0,0,1-1.92-.39,6.06,6.06,0,0,1-3-3.23,11,11,0,0,1-.73-4.9,13.22,13.22,0,0,1,.73-4A5.44,5.44,0,0,1,208,48.93a5.12,5.12,0,0,1,5.39,4.22l4.42,0a9.58,9.58,0,0,0-3.09-6,10,10,0,0,0-6.08-2.18c-6,0-8.81,3.41-10.13,7.76a16.39,16.39,0,0,0-.56,4.47,18.72,18.72,0,0,0,.47,4.09c1.24,4.94,4.86,8.29,10,8.09a9.7,9.7,0,0,0,6.76-2.59,7.66,7.66,0,0,0,2.39-5.35"/><path class="cls-2" d="M156,61.28h-4.59c.14,2-2.27,3.9-4.72,3.81a5.75,5.75,0,0,1-1.92-.38,6.08,6.08,0,0,1-3-3.24,10.84,10.84,0,0,1-.73-4.9,13,13,0,0,1,.73-4,5.44,5.44,0,0,1,4.63-3.71,5.12,5.12,0,0,1,5.39,4.22l4.42,0A9.58,9.58,0,0,0,153.1,47,10,10,0,0,0,147,44.81c-6,0-8.81,3.4-10.14,7.75a16.8,16.8,0,0,0-.55,4.47,18.13,18.13,0,0,0,.47,4.09c1.24,4.94,4.85,8.29,10,8.09a9.72,9.72,0,0,0,6.76-2.59A7.61,7.61,0,0,0,156,61.28"/><rect class="cls-4" x="416.87" y="20.13" width="5.36" height="47.55"/><rect class="cls-4" x="423.03" y="20.13" width="5.36" height="47.55"/><path class="cls-5" d="M384.41,20.13h5.35v30s-.24,5,1.95,8c2.43,3.33,6.8,3.73,6.8,3.73h15.31v5.42H398.91a15.39,15.39,0,0,1-11.73-5.51c-3.8-4.7-2.77-13.36-2.77-13.36Z"/><path class="cls-5" d="M390.56,20.13h5.34V51.67a3.9,3.9,0,0,0,3.59,4h14.33V61h-14a8.68,8.68,0,0,1-6.89-2.68c-2.48-2.62-2.36-7.38-2.36-7.38Z"/><path class="cls-5" d="M283.44,33.64a2.24,2.24,0,0,0-2.2-2.28,2.31,2.31,0,0,0-2.26,2.3v34h-5.41v-34a7.91,7.91,0,0,1,7.67-8.06c4.2,0,7.38,3.83,7.38,8.27V67.68h-5.19Z"/><path class="cls-5" d="M299.29,33.6A2.24,2.24,0,0,0,297,31.37a2.29,2.29,0,0,0-2.25,2.29v34h-5.17v-34c0-4.45,3.25-8.06,7.43-8.06a7.84,7.84,0,0,1,7.6,8.06v34h-5.42Z"/><path class="cls-5" d="M289.1,30.47a8.37,8.37,0,0,0-16.31,3V67.68h-5.36V33.42c0-7.71,6.16-14.29,13.65-14.29a13.27,13.27,0,0,1,8.15,2.81,13,13,0,0,1,8.07-2.81c7.48,0,13.65,6.58,13.65,14.29V67.68h-5.35v-34c0-4.65-3.73-8.91-8.37-8.91a8.84,8.84,0,0,0-8.12,5.72"/><path class="cls-4" d="M332.67,62.4a5.14,5.14,0,1,1,5.14,5.15,5.15,5.15,0,0,1-5.14-5.15"/><path class="cls-5" d="M449.38,33.64a2.25,2.25,0,0,0-2.21-2.28,2.29,2.29,0,0,0-2.24,2.3v34h-5.42v-34a7.9,7.9,0,0,1,7.67-8.06c4.2,0,7.37,3.83,7.37,8.27V67.68h-5.19Z"/><path class="cls-5" d="M465.23,33.6A2.24,2.24,0,0,0,463,31.37a2.29,2.29,0,0,0-2.26,2.29v34h-5.18v-34c0-4.45,3.26-8.06,7.45-8.06a7.83,7.83,0,0,1,7.58,8.06v34h-5.41Z"/><path class="cls-5" d="M455,30.47a8.37,8.37,0,0,0-16.31,3V67.68h-5.36V33.42c0-7.71,6.15-14.29,13.63-14.29a13.25,13.25,0,0,1,8.15,2.81,13.07,13.07,0,0,1,8.08-2.81c7.48,0,13.65,6.58,13.65,14.29V67.68h-5.37l0-34c0-4.65-3.73-8.91-8.37-8.91A8.84,8.84,0,0,0,455,30.47"/><polygon class="cls-5" points="315.37 33.1 320.29 33.1 320.29 67.75 315.43 67.75 315.37 33.1"/><path class="cls-5" d="M336.42,33.08l0,5.43-5,0A4.22,4.22,0,0,0,327.94,40a5.1,5.1,0,0,0-1.27,3.55V67.75h-5.15V43.59A11.45,11.45,0,0,1,324,36.37c3-3.58,6.41-3.29,6.41-3.29Z"/><path class="cls-5" d="M374.14,34.41S374,25,364.39,25a9.67,9.67,0,0,0-9.93,9.19c0,6.44,5.4,8.68,7.4,9.46,6.47,2.53,10.86,4,10.78,9.77s-3.61,8.89-8,8.89c-9.44,0-9.12-8.76-9.12-8.76l5.79,0s-.34,3.39,2.84,3.39a3,3,0,0,0,3-3.18c-.15-2.93-6-3.75-9.36-5.62-5-2.78-9.19-6.57-9-13.86.22-7.52,5.61-14.61,15.17-14.61s13.76,6.05,15,9.8a23.67,23.67,0,0,1,.91,5Z"/><path class="cls-5" d="M354.57,53.42s-.07,9.77,9.85,9.67c7.77-.08,9.16-7.09,9.2-9.07.09-5.73-3.24-7.83-7-9.43-3.27-1.37-5.65-2.12-7.54-3.45a8,8,0,0,1-3.67-7,8.76,8.76,0,0,1,8.55-8.33c5.61,0,7.12,2.81,8.05,4.31a12.89,12.89,0,0,1,1.23,4.32H367.3a2.8,2.8,0,0,0-3-3,3,3,0,0,0-3,3.19c.14,2.92,6,3.75,9.36,5.62,5,2.77,9.2,6.56,9,13.87-.21,7.5-5.62,14.6-15.16,14.6s-13.76-6.05-15-9.8a24.1,24.1,0,0,1-.84-5.46Z"/><rect class="cls-6" x="416.87" y="20.13" width="5.36" height="47.55"/><rect class="cls-6" x="423.03" y="20.13" width="5.36" height="47.55"/><path class="cls-7" d="M384.41,20.13h5.35v30s-.24,5,1.95,8c2.43,3.33,6.8,3.73,6.8,3.73h15.31v5.42H398.91a15.39,15.39,0,0,1-11.73-5.51c-3.8-4.7-2.77-13.36-2.77-13.36Z"/><path class="cls-7" d="M390.56,20.13h5.34V51.67a3.9,3.9,0,0,0,3.59,4h14.33V61h-14a8.68,8.68,0,0,1-6.89-2.68c-2.48-2.62-2.36-7.38-2.36-7.38Z"/><path class="cls-7" d="M283.44,33.64a2.24,2.24,0,0,0-2.2-2.28,2.31,2.31,0,0,0-2.26,2.3v34h-5.41v-34a7.91,7.91,0,0,1,7.67-8.06c4.2,0,7.38,3.83,7.38,8.27V67.68h-5.19Z"/><path class="cls-7" d="M299.29,33.6A2.24,2.24,0,0,0,297,31.37a2.29,2.29,0,0,0-2.25,2.29v34h-5.17v-34c0-4.45,3.25-8.06,7.43-8.06a7.84,7.84,0,0,1,7.6,8.06v34h-5.42Z"/><path class="cls-7" d="M289.1,30.47a8.37,8.37,0,0,0-16.31,3V67.68h-5.36V33.42c0-7.71,6.16-14.29,13.65-14.29a13.27,13.27,0,0,1,8.15,2.81,13,13,0,0,1,8.07-2.81c7.48,0,13.65,6.58,13.65,14.29V67.68h-5.35v-34c0-4.65-3.73-8.91-8.37-8.91a8.84,8.84,0,0,0-8.12,5.72"/><path class="cls-6" d="M332.67,62.4a5.14,5.14,0,1,1,5.14,5.15,5.15,5.15,0,0,1-5.14-5.15"/><path class="cls-7" d="M449.38,33.64a2.25,2.25,0,0,0-2.21-2.28,2.29,2.29,0,0,0-2.24,2.3v34h-5.42v-34a7.9,7.9,0,0,1,7.67-8.06c4.2,0,7.37,3.83,7.37,8.27V67.68h-5.19Z"/><path class="cls-7" d="M465.23,33.6A2.24,2.24,0,0,0,463,31.37a2.29,2.29,0,0,0-2.26,2.29v34h-5.18v-34c0-4.45,3.26-8.06,7.45-8.06a7.83,7.83,0,0,1,7.58,8.06v34h-5.41Z"/><path class="cls-7" d="M455,30.47a8.37,8.37,0,0,0-16.31,3V67.68h-5.36V33.42c0-7.71,6.15-14.29,13.63-14.29a13.25,13.25,0,0,1,8.15,2.81,13.07,13.07,0,0,1,8.08-2.81c7.48,0,13.65,6.58,13.65,14.29V67.68h-5.37l0-34c0-4.65-3.73-8.91-8.37-8.91A8.84,8.84,0,0,0,455,30.47"/><polygon class="cls-7" points="315.37 33.1 320.29 33.1 320.29 67.75 315.43 67.75 315.37 33.1"/><path class="cls-7" d="M336.42,33.08l0,5.43-5,0A4.22,4.22,0,0,0,327.94,40a5.1,5.1,0,0,0-1.27,3.55V67.75h-5.15V43.59A11.45,11.45,0,0,1,324,36.37c3-3.58,6.41-3.29,6.41-3.29Z"/><path class="cls-7" d="M374.14,34.41S374,25,364.39,25a9.67,9.67,0,0,0-9.93,9.19c0,6.44,5.4,8.68,7.4,9.46,6.47,2.53,10.86,4,10.78,9.77s-3.61,8.89-8,8.89c-9.44,0-9.12-8.76-9.12-8.76l5.79,0s-.34,3.39,2.84,3.39a3,3,0,0,0,3-3.18c-.15-2.93-6-3.75-9.36-5.62-5-2.78-9.19-6.57-9-13.86.22-7.52,5.61-14.61,15.17-14.61s13.76,6.05,15,9.8a23.67,23.67,0,0,1,.91,5Z"/><path class="cls-7" d="M354.57,53.42s-.07,9.77,9.85,9.67c7.77-.08,9.16-7.09,9.2-9.07.09-5.73-3.24-7.83-7-9.43-3.27-1.37-5.65-2.12-7.54-3.45a8,8,0,0,1-3.67-7,8.76,8.76,0,0,1,8.55-8.33c5.61,0,7.12,2.81,8.05,4.31a12.89,12.89,0,0,1,1.23,4.32H367.3a2.8,2.8,0,0,0-3-3,3,3,0,0,0-3,3.19c.14,2.92,6,3.75,9.36,5.62,5,2.77,9.2,6.56,9,13.87-.21,7.5-5.62,14.6-15.16,14.6s-13.76-6.05-15-9.8a24.1,24.1,0,0,1-.84-5.46Z"/></g></g></svg>