<svg xmlns="http://www.w3.org/2000/svg" xmlns:xlink="http://www.w3.org/1999/xlink" width="594.88" height="84.07" viewBox="0 0 594.88 84.07"><defs><linearGradient id="a" y1="42.03" x2="594.88" y2="42.03" gradientUnits="userSpaceOnUse"><stop offset="0" stop-color="#0d336b"/><stop offset="0.51" stop-color="#174591"/><stop offset="1" stop-color="#0e3570"/></linearGradient></defs><path d="M553,84.07H41.84A41.85,41.85,0,0,1,0,42.22v-.38A41.84,41.84,0,0,1,41.84,0H553a41.84,41.84,0,0,1,41.84,41.84v.38A41.85,41.85,0,0,1,553,84.07" style="fill:url(#a)"/><path d="M149.21,37.07H125.49a2,2,0,0,0-1.83,1.49l-.07.3a2.53,2.53,0,0,0,.92,2.37l10.3,7.42H123a2,2,0,0,0-1.83,1.48l-.06.28a1.18,1.18,0,0,0,1.2,1.48h23.73a2,2,0,0,0,1.83-1.48l.06-.28a2.52,2.52,0,0,0-.92-2.36l-10.26-7.43h11.73a2,2,0,0,0,1.83-1.48l.06-.3a1.19,1.19,0,0,0-1.2-1.49" style="fill:#fff"/><polygon points="82.73 31.61 92.88 31.61 88.28 53.21 78.14 53.21 82.73 31.61" style="fill:#fff"/><path d="M95.7,51.89q-3.27-.21-3.27-2.93a5.66,5.66,0,0,1,.1-1.06L93,45.76a4.76,4.76,0,0,1,2.73-3.51,6.67,6.67,0,0,1,2.11-.51h11.5l.3-1.36H96.82a1.14,1.14,0,0,1-1.29-1.3,2.09,2.09,0,0,1,2-2h19q3.27.2,3.27,3a4.19,4.19,0,0,1-.13,1l-2.29,10.8Zm6.84-3.24h5.33l.79-3.64h-5.33Z" style="fill:#fff"/><path d="M184.8,37.11q3.22.2,3.23,3a5.79,5.79,0,0,1-.1,1l-2.28,10.77H175.47l2.45-11.51h-2l-2.46,11.51H163.27l2.45-11.51h-2l-2.45,11.51H151.08l3.13-14.75Z" style="fill:#fff"/><path d="M192.66,51.89q-3.25-.21-3.26-2.93a5.66,5.66,0,0,1,.1-1.06l.48-2.14a4.77,4.77,0,0,1,2.72-3.51,6.73,6.73,0,0,1,2.12-.51h11.49l.31-1.36H193.79a1.15,1.15,0,0,1-1.3-1.3,2.11,2.11,0,0,1,2-2h19q3.27.2,3.27,3a4.19,4.19,0,0,1-.13,1l-2.29,10.8Zm6.85-3.24h5.33l.79-3.64H200.3Z" style="fill:#fff"/><path d="M269.55,51.89q-3.27-.21-3.27-2.93a5.66,5.66,0,0,1,.1-1.06l2.29-10.73h10.18L276.4,48.65h5.29l2.45-11.48h10.14l-3.14,14.72Z" style="fill:#fff"/><path d="M298.91,51.89q-3.27-.21-3.27-2.93a6.65,6.65,0,0,1,.1-1.06l.48-2.14A4.76,4.76,0,0,1,299,42.25a6.67,6.67,0,0,1,2.11-.51h11.5l.3-1.36H300a1.15,1.15,0,0,1-1.3-1.3,1.88,1.88,0,0,1,.61-1.36,1.9,1.9,0,0,1,1.37-.61h19q3.27.2,3.27,3a4.23,4.23,0,0,1-.14,1l-2.28,10.8Zm6.84-3.24h5.34l.78-3.64h-5.33Z" style="fill:#fff"/><path d="M353.54,30.33l-4.6,21.59-21.39,0c-2.17-.14-3.27-1.12-3.27-2.93a6.06,6.06,0,0,1,.11-1.06l1.46-6.78a4.67,4.67,0,0,1,2.73-3.5,6.12,6.12,0,0,1,2.11-.48h11.24l1.47-6.85ZM339.48,48.65l1.77-8.27h-5.11l-1.74,8.27Z" style="fill:#fff"/><path d="M77.17,35.91A7.86,7.86,0,0,1,77,37.44l-.82,3.88a6.86,6.86,0,0,1-4,5.08,9.41,9.41,0,0,1-3.07.75H52l-1.29,6.06H38.82l4.6-21.6h29q4.74.32,4.74,4.3m-11.58-.48H54.45l-1.66,7.9H63.92Z" style="fill:#fff"/><path d="M272.59,63.33,240.72,27.82l11.11,17.74a11.39,11.39,0,1,1,5.61-7.28A11.26,11.26,0,0,1,255.8,42L260,46.7a17.44,17.44,0,0,0,3.45-6.94,17.68,17.68,0,1,0-8.35,11.09l4.06,6.48-15.29-1.11,20.18,16.51-7.63-10.68Z" style="fill:#fff"/><path d="M425.8,37.17l-17.38,0a6.12,6.12,0,0,0-2.11.48,4.67,4.67,0,0,0-2.73,3.5l-1.47,6.78A7,7,0,0,0,402,49c0,1.81,1.08,2.79,3.26,2.93l17.39,0a5.74,5.74,0,0,0,2.11-.48,4.66,4.66,0,0,0,2.72-3.5L429,41.16a7.1,7.1,0,0,0,.1-1.06q0-2.72-3.27-2.93M412.13,48.65l1.74-8.27H419l-1.77,8.27Z" style="fill:#63c3e2"/><path d="M455.07,37.21q3.27.2,3.27,2.93a6.42,6.42,0,0,1-.1,1L456,51.92H445.77l2.45-11.48h-5.29l-2.45,11.48H430.34l3.13-14.71Z" style="fill:#63c3e2"/><path d="M484.56,37.21q3.27.2,3.27,2.93a5.48,5.48,0,0,1-.1,1l-2.29,10.73H475.26l2.45-11.48h-5.29L470,51.92H459.83L463,37.21Z" style="fill:#63c3e2"/><path d="M514,37.14H496.35a5.5,5.5,0,0,0-2.11.51,4.77,4.77,0,0,0-2.72,3.51l-.34,1.52-1.12,5.26a4.75,4.75,0,0,0-.13,1q0,2.76,3.27,3h19a2.11,2.11,0,0,0,2-2,1.15,1.15,0,0,0-1.3-1.3H500l.31-1.36h11.49a6.73,6.73,0,0,0,2.12-.51,4.8,4.8,0,0,0,2.73-3.51l.47-2.14a5.7,5.7,0,0,0,.11-1.06c0-1.82-1.09-2.79-3.28-2.93M506.35,44H501l.78-3.64h5.33Z" style="fill:#63c3e2"/><path d="M545.57,37.14H525.41a6,6,0,0,0-2.11.48,4.66,4.66,0,0,0-2.72,3.51l-1.47,6.77A6,6,0,0,0,519,49c0,1.82,1.09,2.79,3.27,2.93l20.09,0a1.94,1.94,0,0,0,1.83-1.48l.07-.3a1.19,1.19,0,0,0-1.21-1.48H529.12l1.74-8.24h14a2,2,0,0,0,1.82-1.48l.07-.31a1.18,1.18,0,0,0-1.21-1.48" style="fill:#63c3e2"/><path d="M573.56,37.14h-6.14l1.46-6.81H558.73l-1.45,6.81h-6.7a2,2,0,0,0-1.83,1.48l-.06.3a1.19,1.19,0,0,0,1.2,1.49h6.69l-2.45,11.51h10.15l2.45-11.51h6.14a2,2,0,0,0,1.83-1.49l.06-.3a1.18,1.18,0,0,0-1.2-1.48" style="fill:#63c3e2"/><path d="M400.81,30.33H373.56a8.87,8.87,0,0,0-3.06.75,6.83,6.83,0,0,0-4,5.07l-2.11,10a7.78,7.78,0,0,0-.17,1.53q0,4,4.74,4.29h27.25a2.28,2.28,0,0,0,2.13-1.73l.08-.35A1.38,1.38,0,0,0,397,48.11H375.81l0-.09,3-13.88H400a2.27,2.27,0,0,0,2.13-1.73l.07-.35a1.38,1.38,0,0,0-1.4-1.73" style="fill:#63c3e2"/></svg>