<svg xmlns="http://www.w3.org/2000/svg" xmlns:xlink="http://www.w3.org/1999/xlink" width="539.63" height="124.38" viewBox="0 0 539.63 124.38"><defs><linearGradient id="a" x1="181.86" y1="24.99" x2="181.86" y2="157.25" gradientUnits="userSpaceOnUse"><stop offset="0" stop-color="#0ab7e6"/><stop offset="0.16" stop-color="#0cacdc"/><stop offset="0.45" stop-color="#118fc1"/><stop offset="0.83" stop-color="#196096"/><stop offset="1" stop-color="#1d4880"/></linearGradient><linearGradient id="b" x1="220.47" y1="27.29" x2="220.47" y2="159.55" xlink:href="#a"/><linearGradient id="c" x1="254.63" y1="27.29" x2="254.63" y2="159.55" xlink:href="#a"/><linearGradient id="d" x1="281.05" y1="27.29" x2="281.05" y2="159.55" xlink:href="#a"/><linearGradient id="e" x1="297.17" y1="27.29" x2="297.17" y2="159.55" xlink:href="#a"/><linearGradient id="f" x1="319.19" y1="27.29" x2="319.19" y2="159.55" xlink:href="#a"/><linearGradient id="g" x1="354.19" y1="27.29" x2="354.19" y2="159.55" xlink:href="#a"/><linearGradient id="h" x1="211.96" y1="103.84" x2="351.33" y2="110.4" xlink:href="#a"/></defs><path d="M211.43,50a24.21,24.21,0,0,0-20.21-9.84C182.33,40.18,173.38,44,166,51a44.85,44.85,0,0,0-13.43,24.83c-1.31,8.16.15,16.1,4,21.76,4.13,6.16,10.6,9.16,19.79,9.16a39,39,0,0,0,23.31-7.59l.2-.15L195,89.37l-.28.21a26.24,26.24,0,0,1-15.87,5.64c-4.92,0-9-1.72-11.75-5-3.07-3.6-4.24-8.78-3.3-14.6,2.08-13,13.95-23.95,25.91-23.95,5.44,0,9.85,2.32,12.43,6.53l.18.29,9.29-8.3Z" style="fill:url(#a)"/><path d="M224.46,55c-9.63,0-18.75,8-20.33,17.85-.7,4.31.12,8,2.37,10.62s5.64,4,9.93,4a20.68,20.68,0,0,0,20.39-17.13c.71-4.44-.2-8.42-2.58-11.2A12.52,12.52,0,0,0,224.46,55ZM212.92,72.75c.72-4.47,4.45-9.23,9.94-9.23a5.39,5.39,0,0,1,4.27,1.69,5.52,5.52,0,0,1,1,4.58c-.89,5.5-5.05,9.35-10.13,9.35a5.17,5.17,0,0,1-4.09-1.59A5.82,5.82,0,0,1,212.92,72.75Z" style="fill:url(#b)"/><path d="M268.4,59.07A12.53,12.53,0,0,0,258.62,55c-9.64,0-18.76,8-20.34,17.85-.69,4.31.13,8,2.37,10.62s5.64,4,9.94,4A20.7,20.7,0,0,0,271,70.27C271.69,65.83,270.77,61.85,268.4,59.07ZM247.07,72.75c.72-4.47,4.45-9.23,9.94-9.23a5.37,5.37,0,0,1,4.27,1.69,5.52,5.52,0,0,1,1,4.58c-.88,5.5-5,9.35-10.12,9.35a5.16,5.16,0,0,1-4.09-1.59A5.91,5.91,0,0,1,247.07,72.75Z" style="fill:url(#c)"/><polygon points="282.81 44.44 270.41 86.69 279.29 86.69 291.7 44.44 282.81 44.44" style="fill:url(#d)"/><path d="M304.73,55.75l-9.11,30.94h-8.89L296,55.75Zm-5.89-11.31-2.28,8h8.89l2.16-8Z" style="fill:url(#e)"/><path d="M335.78,64.59A7.79,7.79,0,0,0,327.64,55,14,14,0,0,0,320,57.41l.51-1.66h-8.9l-9.16,30.94h8.89l3.21-11c1.3-4.42,2.32-7.91,4.69-10.23a7.59,7.59,0,0,1,4.85-2.25,2.14,2.14,0,0,1,2.38,2.85,28.29,28.29,0,0,1-.88,3.49l-5,17.11h8.82l5.18-17.55A37.51,37.51,0,0,0,335.78,64.59Z" style="fill:url(#f)"/><path d="M365.52,55.75l-.72,2.52A9.24,9.24,0,0,0,357.38,55c-9.05,0-18,7.84-19.45,17.13-.68,4.24.22,8.07,2.53,10.79a11.24,11.24,0,0,0,8.73,3.79,15.07,15.07,0,0,0,7.75-2.15c-1.73,3.65-4.43,5.3-8.52,5.3a7.12,7.12,0,0,1-6.1-2.66l-.41-.52-8,3.89.31.72c1.89,4.34,6.6,6.84,12.93,6.84,5.12,0,9.25-1.35,12.62-4.1,4.49-3.65,5.7-7.81,7.1-12.63l7.61-25.63ZM346.7,72.2h0a10.36,10.36,0,0,1,9.9-8.68A5.53,5.53,0,0,1,361,65.24a5.34,5.34,0,0,1,1,4.39,10.35,10.35,0,0,1-10,8.79,4.86,4.86,0,0,1-5.32-6.22Z" style="fill:url(#g)"/><path d="M446.72,0H430.17L370.42,105.73h21.75l12.39-22H437.3l2.63,22h19.56ZM434.64,62.51H416.3l15.15-26.89Z" style="fill:#1c4980"/><polygon points="511.1 0 488.63 105.73 507.98 105.73 530.84 0 511.1 0" style="fill:#1c4980"/><polygon points="480.71 106.13 465.85 106.13 468.45 91.27 483.31 91.27 480.71 106.13" style="fill:#1c4980"/><polygon points="531.74 106.13 516.89 106.13 519.49 91.27 534.34 91.27 531.74 106.13" style="fill:#1c4980"/><path d="M203.25,99.24a80,80,0,0,1,16.29-4.69,164.71,164.71,0,0,1,16.86-2.2c5.65-.41,11.32-.6,17-.66s11.32.2,17,.5,11.31.78,16.94,1.46,11.26,1.45,16.87,2.4c11.24,2.06,22.28,4.91,33,8s21.34,6,32.12,8.25q8.12,1.58,16.32,2.78c5.46.85,10.95,1.49,16.45,2a266.55,266.55,0,0,0,66.5-2.43,199.17,199.17,0,0,1-66.9,9.51,252.09,252.09,0,0,1-33.92-3.17,276,276,0,0,1-33.2-7.45c-5.42-1.46-10.76-3-16.1-4.43s-10.7-2.66-16.08-3.77-10.82-2.16-16.29-3c-2.73-.43-5.47-.84-8.21-1.21s-5.49-.78-8.24-1.13c-5.5-.7-11-1.22-16.54-1.7s-11.07-.82-16.61-1-11.11-.2-16.66.05c-2.77.12-5.55.32-8.32.65S206,98.67,203.25,99.24Zm46.57,7.4c10.33,1.43,20.63,3,30.86,4.89,2.56.46,5.11,1,7.65,1.51s5.08,1.06,7.61,1.64l15.27,3.49q15.33,3.38,30.8,6.21c-4.88-2-9.88-3.57-14.88-5.15s-10-3-15.06-4.46a301.65,301.65,0,0,0-30.67-7.21c-5.18-.93-10.38-1.69-15.59-2.32l-7.83-.9-7.84-.69a311.22,311.22,0,0,0-31.44-1C229.11,103.93,239.48,105.22,249.82,106.64Z" style="fill:url(#h)"/><path d="M27.65,53,23.12,71.27H47.27L44.05,83.35H19.66l-5.4,22.59H.25L16.91,41.57H56.42L53.37,53Z" style="fill:#1d4880;stroke:#1d4880;stroke-miterlimit:10;stroke-width:0.394511px"/><path d="M63.07,106l1-3.49c-3.29,2.72-6,3.88-10.29,3.88s-7-1.16-8.48-3.57c-1.35-2.26-1.47-5.52-.43-9.1C46.75,87.28,52.37,82,61,82h8.8l.59-2c1.29-4.43-.15-6.38-5.09-6.38-3.58,0-5.5.94-8.13,3.35l-4.11-6.3C58,66.29,61.94,65,68.17,65c10.45,0,14.49,4.82,11.73,14.31L72.16,106Zm4.75-17.1H60.45c-3.37,0-5.72,1.71-6.56,4.59s.36,4.66,4,4.66c2.58,0,4.29-.23,6.44-1.94,1.29-1,2.13-2.65,2.85-5.13Z" style="fill:#1d4880;stroke:#1d4880;stroke-miterlimit:10;stroke-width:0.578554px"/><path d="M87.16,93.07c2.57,3.69,5.85,5.61,9.13,5.61,2.64,0,4.61-1.46,4.77-3.31a4.2,4.2,0,0,0-2-3.38c-6.61-5.08-12.25-8.46-11.66-15.39C88,69.91,94.43,65,102,65a14.43,14.43,0,0,1,12.48,6.77l-5.61,7.62c-2.11-3.46-4.85-5.15-7.49-5.15-1.92,0-3.53,1-3.64,2.3a3.45,3.45,0,0,0,1.61,2.77c7.07,5.31,12.63,8.7,12,16-.54,6.31-6.83,12.62-16.28,12.62-6.25,0-10.29-2.39-15-7.62Z" style="fill:#1d4880;stroke:#1d4880;stroke-miterlimit:10;stroke-width:0.567139px"/><path d="M129.14,53.22h10l-3.35,15.39h6.45l-1.95,8.71h-6.38l-7,29.59H116.82l7-29.59h-5l1.88-8.71h5Z" style="fill:#1d4880;stroke:#1d4880;stroke-miterlimit:10;stroke-width:0.578554px"/><polygon points="392.18 105.73 397.46 109.58 375.7 109.58 370.42 105.73 392.18 105.73" style="fill:#1b1b4c"/><polygon points="439.93 105.73 445.21 109.58 464.77 109.58 459.49 105.73 439.93 105.73" style="fill:#1b1b4c"/><polygon points="488.63 105.73 493.92 109.58 513.27 109.58 507.98 105.73 488.63 105.73" style="fill:#1b1b4c"/><polygon points="404.56 83.75 409.85 87.6 437.72 87.6 437.3 83.75 404.56 83.75" style="fill:#1b1b4c"/><polygon points="446.72 0 452.01 3.85 464.77 109.58 459.49 105.73 446.72 0" style="fill:#6380b0"/><polygon points="465.85 106.13 471.14 109.98 485.99 109.98 480.71 106.13 465.85 106.13" style="fill:#1b1b4c"/><polygon points="483.31 91.27 480.71 106.13 485.99 109.98 488.59 95.12 483.31 91.27" style="fill:#6380b0"/><polygon points="516.89 106.13 522.17 109.98 537.03 109.98 531.74 106.13 516.89 106.13" style="fill:#1b1b4c"/><polygon points="534.34 91.27 531.74 106.13 537.03 109.98 539.63 95.12 534.34 91.27" style="fill:#6380b0"/><polygon points="530.84 0 507.98 105.73 513.27 109.58 536.12 3.85 530.84 0" style="fill:#6380b0"/><polygon points="431.44 35.62 432.74 46.55 423.76 62.51 416.3 62.51 431.44 35.62" style="fill:#272d64"/><polygon points="404.56 83.75 409.85 87.6 397.46 109.58 392.18 105.73 404.56 83.75" style="fill:#272d64"/></svg>