<?xml version="1.0" encoding="utf-8"?>
<!-- Generator: Adobe Illustrator 26.0.3, SVG Export Plug-In . SVG Version: 6.00 Build 0)  -->
<svg version="1.1" id="Layer_1" xmlns="http://www.w3.org/2000/svg" xmlns:xlink="http://www.w3.org/1999/xlink" x="0px" y="0px"
	 viewBox="0 0 555.1 70.1" style="enable-background:new 0 0 555.1 70.1;" xml:space="preserve">
<style type="text/css">
	.st0{fill:#1A2A40;}
	.st1{fill:#4DC2DF;}
</style>
<g id="Layer_2_00000182527596971614343550000015165185893812206269_">
	<g id="Layer_1-2">
		<path class="st0" d="M140.6,24.7h-30.2c-1.1,0-2.1,0.8-2.3,1.9l-0.1,0.4c-0.2,1.1,0.3,2.3,1.2,3l13.1,9.5h-15
			c-1.1,0-2.1,0.8-2.3,1.9l-0.1,0.3c-0.2,0.8,0.3,1.6,1.1,1.8c0.2,0,0.3,0.1,0.5,0h30.2c1.1,0,2.1-0.8,2.3-1.9l0.1-0.3
			c0.2-1.1-0.3-2.3-1.2-3l-13.1-9.5h15c1.1-0.1,2-0.8,2.3-1.9l0.1-0.4c0.2-0.8-0.3-1.6-1.1-1.8C140.9,24.7,140.7,24.7,140.6,24.7"/>
		<polygon class="st0" points="55.9,17.7 68.8,17.7 63,45.2 50.1,45.2 		"/>
		<path class="st0" d="M72.4,43.5c-2.8-0.2-4.2-1.4-4.2-3.7c0-0.5,0-0.9,0.1-1.3l0.6-2.7c0.4-2,1.7-3.6,3.5-4.5
			c0.9-0.4,1.8-0.6,2.7-0.6h14.6l0.4-1.8H73.8c-0.8,0.1-1.5-0.4-1.6-1.2c0-0.1,0-0.3,0-0.4c0-0.7,0.3-1.3,0.8-1.8
			c0.4-0.5,1.1-0.8,1.7-0.8h24.1c2.8,0.2,4.2,1.4,4.2,3.8c0,0.4-0.1,0.9-0.2,1.3L100,43.5H72.4z M81.1,39.4h6.8l1-4.6h-6.8
			L81.1,39.4z"/>
		<path class="st0" d="M185.9,24.7c2.8,0.2,4.1,1.4,4.1,3.8c0,0.5-0.1,0.9-0.1,1.4L187,43.5h-13l3.1-14.6h-2.6l-3.1,14.6h-12.9
			l3.1-14.6H159l-3.1,14.6h-12.9l4-18.8L185.9,24.7z"/>
		<path class="st0" d="M195.9,43.5c-2.8-0.2-4.2-1.4-4.2-3.7c0-0.5,0-0.9,0.1-1.3l0.6-2.7c0.4-2,1.7-3.7,3.5-4.5
			c0.9-0.4,1.8-0.6,2.7-0.6h14.6l0.4-1.8h-16.4c-0.8,0.1-1.5-0.4-1.6-1.2c0-0.1,0-0.3,0-0.4c0-0.7,0.3-1.3,0.8-1.7
			c0.4-0.5,1.1-0.8,1.7-0.8h24.2c2.8,0.2,4.2,1.4,4.2,3.8c0,0.4-0.1,0.9-0.2,1.3l-2.9,13.7L195.9,43.5z M204.6,39.4h6.8l1-4.6h-6.8
			L204.6,39.4z"/>
		<path class="st0" d="M293.8,43.5c-2.8-0.2-4.2-1.4-4.2-3.7c0-0.5,0-0.9,0.1-1.3l2.9-13.7h13l-3.1,14.6h6.7l3.1-14.6h12.9l-4,18.7
			L293.8,43.5z"/>
		<path class="st1" d="M485.3,43.5c-2.8-0.2-4.2-1.4-4.2-3.7c0-0.5,0.1-0.9,0.1-1.3l2.9-13.7h13L494,39.4h6.8l3.1-14.6h12.9l-4,18.7
			L485.3,43.5z"/>
		<path class="st0" d="M331.2,43.5c-2.8-0.2-4.2-1.4-4.2-3.7c0-0.5,0-0.9,0.1-1.3l0.6-2.7c0.3-2,1.7-3.6,3.5-4.5
			c0.9-0.4,1.8-0.6,2.7-0.6h14.6l0.4-1.8h-16.3c-0.8,0.1-1.5-0.5-1.6-1.3c0-0.1,0-0.2,0-0.4c0.1-1.3,1.2-2.4,2.5-2.5h24.1
			c2.8,0.2,4.2,1.4,4.2,3.8c0,0.4-0.1,0.9-0.2,1.3l-2.9,13.7L331.2,43.5z M339.9,39.4h6.8l1-4.6h-6.8L339.9,39.4z"/>
		<path class="st0" d="M400.7,16.1l-5.8,27.5l-27.2-0.1c-2.8-0.2-4.2-1.4-4.2-3.7c0-0.5,0.1-0.9,0.1-1.3l1.9-8.6
			c0.3-2,1.7-3.7,3.5-4.5c0.8-0.4,1.8-0.6,2.7-0.6H386l1.9-8.7L400.7,16.1z M382.8,39.4l2.3-10.5h-6.5l-2.2,10.5H382.8z"/>
		<path class="st0" d="M48.8,23.2c0,0.7-0.1,1.3-0.2,2l-1,4.9c-0.5,2.9-2.4,5.3-5.1,6.5c-1.2,0.6-2.5,0.9-3.9,1H16.7l-1.6,7.7H0
			l5.8-27.5h37C46.8,18,48.8,19.8,48.8,23.2 M34.1,22.6H19.9l-2.1,10.1H32L34.1,22.6z"/>
		<path class="st1" d="M553.6,24.7h-30.2c-1.1,0-2.1,0.8-2.4,1.9l-0.1,0.4c-0.2,1.1,0.3,2.3,1.2,3l13.1,9.5h-15
			c-1.1,0-2.1,0.8-2.3,1.9l-0.1,0.3c-0.2,0.8,0.3,1.6,1.1,1.8c0.2,0,0.3,0.1,0.5,0h30.2c1.1,0,2.1-0.8,2.3-1.9l0.1-0.3
			c0.2-1.1-0.3-2.3-1.2-3l-13.1-9.5h15c1.1-0.1,2-0.8,2.3-1.9l0.1-0.4c0.2-0.8-0.3-1.6-1.1-1.8C553.9,24.7,553.7,24.7,553.6,24.7"/>
		<polygon class="st1" points="468.9,17.7 481.9,17.7 476,45.2 463.1,45.2 		"/>
		<path class="st1" d="M461.9,23.2c0,0.7-0.1,1.3-0.2,2l-1,4.9c-0.5,2.9-2.4,5.3-5.1,6.5c-1.2,0.6-2.5,0.9-3.9,1h-21.9l-1.6,7.7H413
			l5.8-27.5h37C459.8,18,461.8,19.8,461.9,23.2 M447.1,22.6h-14.2l-2.1,10.1H445L447.1,22.6z"/>
		<path class="st0" d="M297.7,58.1l-40.6-45.2l14.1,22.6c-7,3.8-15.9,1.2-19.7-5.8s-1.2-15.9,5.8-19.7s15.9-1.2,19.7,5.8
			c1.7,3.2,2.2,6.9,1.3,10.5c-0.4,1.7-1.1,3.3-2.1,4.7l5.4,6.1c7.9-9.7,6.5-23.9-3.1-31.8s-23.9-6.5-31.8,3.1s-6.5,23.9,3.1,31.8
			c7.3,6,17.4,6.8,25.6,2.2l5.2,8.2l-19.5-1.4l25.7,21.1l-9.7-13.6L297.7,58.1z"/>
	</g>
</g>
</svg>
