<svg xmlns="http://www.w3.org/2000/svg" width="130.67" height="19.23" viewBox="0 0 130.67 19.23"><rect width="130.67" height="19.23" rx="9.62" style="fill:#252e41"/><path d="M37.13,7.79H30.91a.51.51,0,0,0-.48.39l0,.08a.7.7,0,0,0,.24.62l2.7,1.94H30.27a.51.51,0,0,0-.48.39l0,.07a.31.31,0,0,0,.32.39h6.22a.51.51,0,0,0,.48-.39v-.07a.65.65,0,0,0-.24-.62L33.87,8.65H37a.52.52,0,0,0,.48-.39V8.18a.3.3,0,0,0-.31-.39" style="fill:#fff"/><polygon points="19.7 6.36 22.36 6.36 21.16 12.02 18.5 12.02 19.7 6.36" style="fill:#fff"/><path d="M23.1,11.67c-.57,0-.86-.29-.86-.76a1.33,1.33,0,0,1,0-.28l.13-.57a1.25,1.25,0,0,1,.71-.92A2.2,2.2,0,0,1,23.67,9h3l.08-.36H23.4a.3.3,0,0,1-.34-.34.55.55,0,0,1,.51-.51h5c.57,0,.86.29.86.77a1.26,1.26,0,0,1,0,.27l-.6,2.83Zm1.8-.85h1.39l.21-1H25.1Z" style="fill:#fff"/><path d="M46.46,7.8c.56,0,.85.29.85.77a1.41,1.41,0,0,1,0,.28l-.6,2.82H44l.64-3h-.53l-.65,3H40.81l.65-3h-.54l-.64,3H37.62l.82-3.86Z" style="fill:#fff"/><path d="M48.52,11.67c-.57,0-.86-.29-.86-.76a1.33,1.33,0,0,1,0-.28l.12-.57a1.28,1.28,0,0,1,.72-.92A2.22,2.22,0,0,1,49.08,9h3l.08-.36H48.81a.3.3,0,0,1-.34-.34A.55.55,0,0,1,49,7.8h5c.58,0,.86.29.86.77a1.24,1.24,0,0,1,0,.27l-.6,2.83Zm1.79-.85h1.4l.2-1H50.52Z" style="fill:#fff"/><path d="M68.67,11.67c-.57,0-.86-.29-.86-.76a1.33,1.33,0,0,1,0-.28l.6-2.82h2.67l-.64,3h1.38l.65-3h2.65l-.82,3.86Z" style="fill:#fff"/><path d="M108.09,11.67c-.57,0-.86-.29-.86-.76a1.33,1.33,0,0,1,0-.28l.6-2.82h2.67l-.65,3h1.39l.64-3h2.66l-.82,3.86Z" style="fill:#7dc0dd"/><path d="M76.37,11.67c-.57,0-.86-.29-.86-.76a1.33,1.33,0,0,1,0-.28l.12-.57a1.28,1.28,0,0,1,.72-.92A2.11,2.11,0,0,1,76.93,9h3L80,8.65H76.66a.3.3,0,0,1-.34-.34A.47.47,0,0,1,76.49,8a.46.46,0,0,1,.35-.16h5c.57,0,.86.29.86.77a1.24,1.24,0,0,1,0,.27L82,11.67Zm1.79-.85h1.4l.21-1h-1.4Z" style="fill:#fff"/><path d="M90.69,6l-1.21,5.66h-5.6c-.58,0-.86-.29-.86-.76a1.41,1.41,0,0,1,0-.28l.38-1.78a1.24,1.24,0,0,1,.72-.92,1.53,1.53,0,0,1,.55-.12h3L88,6ZM87,10.82l.47-2.17H86.13l-.46,2.17Z" style="fill:#fff"/><path d="M18.24,7.48a1.87,1.87,0,0,1,0,.4L18,8.9a1.8,1.8,0,0,1-1,1.33,2.19,2.19,0,0,1-.8.2h-4.5L11.3,12H8.19L9.4,6.36H17c.83,0,1.24.42,1.24,1.12m-3-.12H12.29l-.44,2.07h2.92Z" style="fill:#fff"/><path d="M122.15,7.79h-6.22a.51.51,0,0,0-.48.39l0,.08a.7.7,0,0,0,.24.62l2.7,1.94h-3.08a.52.52,0,0,0-.48.39l0,.07a.31.31,0,0,0,.32.39h6.22a.51.51,0,0,0,.48-.39v-.07a.65.65,0,0,0-.24-.62l-2.69-1.94H122a.52.52,0,0,0,.48-.39l0-.08a.31.31,0,0,0-.32-.39" style="fill:#7dc0dd"/><polygon points="104.72 6.36 107.38 6.36 106.18 12.02 103.52 12.02 104.72 6.36" style="fill:#7dc0dd"/><path d="M103.27,7.48a1.9,1.9,0,0,1,0,.4l-.22,1a1.77,1.77,0,0,1-1,1.33,2.19,2.19,0,0,1-.8.2h-4.5L96.32,12H93.21l1.21-5.66H102c.82,0,1.24.42,1.24,1.12m-3-.12H97.31l-.44,2.07h2.92Z" style="fill:#7dc0dd"/><path d="M69.47,14.67,61.12,5.36,64,10a3,3,0,1,1,1.47-1.9,3.21,3.21,0,0,1-.43,1l1.11,1.24a4.45,4.45,0,0,0,.9-1.82,4.63,4.63,0,1,0-5.6,3.4,4.68,4.68,0,0,0,3.42-.49L66,13.1l-4-.29,5.29,4.33-2-2.8Z" style="fill:#fff"/></svg>