<svg xmlns="http://www.w3.org/2000/svg" width="670.21" height="76.16" viewBox="0 0 670.21 76.16"><rect width="670.21" height="76.16" rx="26.42" style="fill:#1b2a3f"/><path d="M223.42,30.84H198.8a2,2,0,0,0-1.91,1.54l-.06.32a2.63,2.63,0,0,0,.95,2.45l10.69,7.71H196.25a2.06,2.06,0,0,0-1.9,1.54l-.06.28a1.23,1.23,0,0,0,1.26,1.54h24.62a2,2,0,0,0,1.9-1.54l.06-.28a2.67,2.67,0,0,0-.95-2.46l-10.65-7.71h12.18a2,2,0,0,0,1.9-1.53l.06-.32a1.23,1.23,0,0,0-1.25-1.54" style="fill:#fff"/><polygon points="154.42 25.17 164.95 25.17 160.19 47.59 149.65 47.59 154.42 25.17" style="fill:#fff"/><path d="M167.87,46.22q-3.37-.21-3.38-3a6.08,6.08,0,0,1,.1-1.1l.49-2.23a5,5,0,0,1,2.84-3.64,6.77,6.77,0,0,1,2.19-.52H182l.32-1.43H169.05a1.18,1.18,0,0,1-1.35-1.34,2.2,2.2,0,0,1,2.05-2.05h19.69c2.26.14,3.4,1.17,3.4,3.08a4.66,4.66,0,0,1-.15,1.06l-2.37,11.21ZM175,42.86h5.54l.81-3.78h-5.54Z" style="fill:#fff"/><path d="M260.36,30.87c2.24.15,3.37,1.17,3.37,3.07a6.69,6.69,0,0,1-.12,1.11l-2.37,11.17H250.67l2.55-11.95H251.1l-2.55,11.95H238l2.55-11.95h-2.13l-2.54,11.95H225.36l3.26-15.31Z" style="fill:#fff"/><path d="M268.53,46.22c-2.27-.14-3.39-1.15-3.39-3a7.09,7.09,0,0,1,.09-1.1l.5-2.23a5,5,0,0,1,2.84-3.64,6.84,6.84,0,0,1,2.19-.52h11.93l.32-1.43H269.69a1.18,1.18,0,0,1-1.34-1.34,1.91,1.91,0,0,1,.63-1.41,2,2,0,0,1,1.42-.64h19.69c2.26.14,3.4,1.17,3.4,3.08a5.24,5.24,0,0,1-.14,1.06L291,46.22Zm7.1-3.36h5.54l.8-3.78h-5.53Z" style="fill:#fff"/><path d="M348.33,46.22q-3.4-.21-3.4-3a6.12,6.12,0,0,1,.11-1.1l2.37-11.14H358l-2.54,11.92h5.48l2.55-11.92H374l-3.25,15.28Z" style="fill:#fff"/><path d="M504.41,46.22q-3.41-.21-3.4-3a6.12,6.12,0,0,1,.11-1.1l2.37-11.14h10.57l-2.54,11.92H517l2.55-11.92h10.52l-3.26,15.28Z" style="fill:#53c3de"/><path d="M378.8,46.22c-2.27-.14-3.39-1.15-3.39-3a6.08,6.08,0,0,1,.1-1.1l.5-2.23a5,5,0,0,1,2.83-3.64,6.9,6.9,0,0,1,2.2-.52H393l.31-1.43H380a1.19,1.19,0,0,1-1.35-1.34,2.22,2.22,0,0,1,2.06-2.05h19.68c2.26.14,3.4,1.17,3.4,3.08a4.62,4.62,0,0,1-.14,1.06l-2.38,11.21Zm7.1-3.36h5.54l.81-3.78h-5.53Z" style="fill:#fff"/><path d="M435.5,23.83l-4.76,22.43-22.21,0q-3.39-.21-3.39-3a7.6,7.6,0,0,1,.1-1.1l1.52-7a4.89,4.89,0,0,1,2.84-3.65,6.29,6.29,0,0,1,2.18-.49h11.68L425,23.8Zm-14.59,19,1.84-8.6h-5.31l-1.8,8.6Z" style="fill:#fff"/><path d="M148.65,29.63a8.51,8.51,0,0,1-.18,1.59l-.85,4a7.08,7.08,0,0,1-4.14,5.26,9,9,0,0,1-3.18.79H122.48l-1.34,6.29H108.85l4.76-22.42h30.13c3.27.21,4.91,1.69,4.91,4.46m-12-.5H125.06l-1.73,8.2h11.56Z" style="fill:#fff"/><path d="M560.08,30.84H535.45a2,2,0,0,0-1.9,1.54l-.06.32a2.63,2.63,0,0,0,1,2.45l10.69,7.71H532.92A2.06,2.06,0,0,0,531,44.4l0,.28a1.22,1.22,0,0,0,1.24,1.54h24.63a2,2,0,0,0,1.9-1.54l.06-.28a2.64,2.64,0,0,0-.95-2.46l-10.65-7.71h12.17a2,2,0,0,0,1.91-1.53l.06-.32a1.22,1.22,0,0,0-1.25-1.54" style="fill:#53c3de"/><polygon points="491.09 25.17 501.61 25.17 496.85 47.59 486.31 47.59 491.09 25.17" style="fill:#53c3de"/><path d="M485.3,29.63a8.45,8.45,0,0,1-.17,1.59l-.86,4a7,7,0,0,1-4.13,5.26,9,9,0,0,1-3.17.79H459.14l-1.33,6.29h-12.3l4.76-22.42H480.4c3.27.21,4.9,1.69,4.9,4.46m-12-.5H461.72L460,37.33h11.56Z" style="fill:#53c3de"/><path d="M351.49,58.1,318.41,21.23l11.53,18.42a11.82,11.82,0,1,1,5.82-7.55,12.08,12.08,0,0,1-1.71,3.81l4.41,4.92a18.14,18.14,0,0,0,3.58-7.2,18.38,18.38,0,1,0-8.67,11.51l4.22,6.73-15.88-1.16,20.94,17.16-7.91-11.09Z" style="fill:#fff"/></svg>